<?xml version="1.0" standalone="no"?>
<!DOCTYPE svg PUBLIC "-//W3C//DTD SVG 20010904//EN"
 "http://www.w3.org/TR/2001/REC-SVG-20010904/DTD/svg10.dtd">
<svg version="1.0" xmlns="http://www.w3.org/2000/svg"
 width="632.000000pt" height="632.000000pt" viewBox="0 0 632.000000 632.000000"
 preserveAspectRatio="xMidYMid meet">
<metadata>
Created by potrace 1.14, written by Peter Selinger 2001-2017
</metadata>
<g transform="translate(0.000000,632.000000) scale(0.100000,-0.100000)"
fill="#000000" stroke="none">
<path d="M2446 5601 c-4 -5 -14 -8 -24 -6 -9 1 -23 -3 -31 -9 -11 -8 -13 -8
-7 2 4 6 2 12 -3 12 -6 0 -11 -5 -11 -11 0 -5 -5 -7 -11 -4 -20 13 -60 13 -56
0 3 -6 -1 -12 -8 -12 -7 0 -11 7 -8 16 3 12 1 11 -11 -3 -17 -21 -11 -43 7
-28 7 5 22 8 34 7 12 -1 20 2 17 7 -3 4 0 8 5 8 6 0 11 -4 11 -9 0 -6 12 -6
32 0 40 11 40 11 34 1 -8 -13 41 -7 58 7 14 11 16 11 17 -5 0 -11 3 -14 6 -6
2 7 14 17 26 23 20 9 21 9 4 -4 -16 -13 -13 -15 30 -12 26 1 57 6 67 10 13 6
21 5 24 -3 2 -7 8 -12 13 -12 6 0 7 5 4 10 -3 6 -2 10 4 10 5 0 12 -4 16 -9 6
-10 72 -8 82 3 3 3 13 0 21 -7 13 -9 14 -9 8 1 -4 6 -3 12 3 12 5 0 12 -6 14
-12 4 -10 6 -10 6 0 1 7 6 10 11 7 6 -3 10 0 10 7 0 8 -11 14 -25 14 -14 0
-25 -5 -25 -10 0 -6 -5 -4 -10 4 -6 10 -10 11 -10 3 0 -7 -5 -13 -11 -13 -5 0
-8 4 -5 8 3 5 -7 8 -22 7 -15 -1 -26 -7 -24 -13 1 -7 -3 -12 -8 -12 -5 0 -10
6 -10 13 0 8 -14 12 -42 11 -31 -1 -42 -6 -40 -15 1 -9 -3 -7 -12 4 -12 16
-15 16 -29 3 -13 -14 -16 -14 -21 0 -4 11 -11 12 -23 6 -10 -5 -24 -7 -31 -5
-7 3 -20 -3 -28 -13 -14 -18 -15 -18 -9 4 6 22 1 30 -9 13z m300 -13 c3 -4 -1
-5 -10 -4 -8 1 -18 5 -22 8 -3 4 1 5 10 4 8 -1 18 -5 22 -8z"/>
<path d="M2853 5594 c0 -6 9 -9 19 -6 10 2 18 8 18 13 0 4 -8 7 -18 6 -10 0
-19 -6 -19 -13z"/>
<path d="M2888 5588 c-10 -10 -14 -18 -9 -18 6 0 13 5 16 11 4 6 13 8 21 5 8
-3 14 -1 14 5 0 6 5 7 10 4 6 -4 7 -12 3 -18 -4 -7 0 -6 10 2 13 11 17 11 17
1 0 -8 2 -11 5 -8 3 3 3 12 0 20 -8 21 -66 18 -87 -4z"/>
<path d="M2987 5593 c3 -7 9 -10 14 -7 5 3 9 0 9 -7 0 -7 2 -10 5 -7 9 9 -5
35 -19 35 -8 0 -12 -6 -9 -14z"/>
<path d="M3027 5594 c2 -7 12 -10 20 -7 12 5 14 2 9 -8 -4 -8 0 -5 8 5 14 18
21 15 17 -7 -1 -5 4 -5 11 -1 22 14 50 15 42 2 -4 -7 -3 -8 4 -4 7 4 12 13 12
20 0 8 -20 12 -64 12 -48 1 -63 -2 -59 -12z"/>
<path d="M3165 5591 c2 -18 25 -28 25 -11 0 7 8 10 20 7 11 -3 20 0 20 5 0 6
6 5 15 -2 12 -10 15 -10 16 1 0 8 4 5 10 -6 8 -19 9 -19 6 -1 -2 17 -10 20
-58 21 -45 0 -56 -3 -54 -14z"/>
<path d="M3290 5590 c0 -11 4 -20 9 -20 5 0 7 9 4 20 -3 11 -7 20 -9 20 -2 0
-4 -9 -4 -20z"/>
<path d="M3316 5602 c-2 -4 -1 -14 5 -22 7 -12 9 -10 9 8 0 23 -5 28 -14 14z"/>
<path d="M3386 5601 c-3 -5 -14 -8 -24 -6 -9 1 -11 0 -4 -2 7 -3 10 -9 6 -14
-3 -5 -10 -6 -16 -3 -7 4 -8 2 -4 -5 6 -9 11 -9 22 0 8 6 14 8 14 5 0 -4 9 -2
20 4 11 6 20 7 20 2 0 -4 10 -9 22 -9 18 -2 20 0 8 8 -12 8 -11 9 5 6 11 -2
19 -9 17 -17 -3 -11 0 -11 12 0 13 10 16 10 16 -1 0 -11 2 -11 10 1 5 8 10 11
10 6 0 -5 7 -3 15 4 18 15 20 0 3 -20 -10 -11 -9 -11 6 0 11 8 22 15 25 15 3
0 5 4 3 8 -1 5 3 7 10 4 7 -2 12 -10 11 -16 -2 -6 2 -11 7 -11 14 0 12 27 -2
32 -7 3 -56 4 -110 4 -53 -1 -94 2 -92 6 3 5 3 8 0 8 -3 0 -7 -4 -10 -9z"/>
<path d="M2095 5580 c-16 -3 -40 -5 -52 -4 -15 1 -23 -5 -24 -15 0 -10 -2 -12
-6 -3 -2 6 -11 12 -19 12 -8 0 -14 -6 -14 -12 0 -9 -3 -9 -8 -2 -6 8 -65 12
-82 4 -3 -1 -8 -2 -12 -1 -5 0 -8 -6 -8 -14 0 -17 16 -20 25 -5 9 15 75 13 75
-2 0 -9 3 -9 8 -3 4 6 32 10 63 10 42 0 55 3 52 12 -3 7 2 13 12 13 9 0 14 -4
11 -8 -2 -4 3 -8 13 -9 9 -1 17 6 18 16 2 19 -6 21 -52 11z m-40 -20 c-3 -5
-12 -10 -18 -10 -7 0 -6 4 3 10 19 12 23 12 15 0z"/>
<path d="M2159 5573 c-9 -10 -8 -13 0 -13 7 0 9 -5 5 -12 -4 -7 -3 -8 4 -4 6
4 9 13 5 21 -4 11 -1 13 11 9 9 -3 13 -11 9 -17 -3 -6 -1 -7 6 -3 6 4 9 10 7
14 -2 4 7 8 20 8 23 2 24 1 7 -12 -13 -11 -14 -14 -3 -12 16 3 30 17 30 31 0
13 -90 4 -101 -10z"/>
<path d="M3627 5571 c3 -12 13 -18 28 -17 13 0 21 4 19 8 -3 4 5 6 16 5 11 -1
20 -8 20 -17 1 -12 3 -12 11 3 9 16 62 25 57 10 -2 -5 0 -9 5 -10 4 -2 7 -1 7
2 0 3 0 11 0 18 0 14 -67 17 -87 4 -7 -5 -13 -4 -13 1 0 5 -7 9 -15 9 -8 0
-12 -4 -10 -8 3 -4 -2 -9 -10 -12 -9 -4 -12 -1 -8 9 3 8 -1 14 -10 14 -10 0
-13 -7 -10 -19z"/>
<path d="M3807 5563 c3 -7 8 -13 12 -14 3 0 14 -2 24 -4 9 -2 15 1 11 6 -3 5
0 9 5 9 6 0 11 -6 11 -12 0 -9 4 -8 10 2 15 23 13 25 -34 25 -31 0 -42 -4 -39
-12z"/>
<path d="M3896 5554 c-5 -13 -4 -14 7 -6 8 7 17 9 20 5 4 -3 7 -1 7 5 0 18
-27 14 -34 -4z"/>
<path d="M3936 5554 c-3 -8 -10 -12 -16 -9 -5 3 -10 1 -10 -4 0 -16 16 -13 30
4 7 8 16 12 21 9 5 -3 9 0 9 5 0 17 -27 13 -34 -5z"/>
<path d="M3980 5555 c-7 -8 -16 -12 -21 -9 -5 3 -9 0 -9 -6 0 -6 11 -8 25 -6
15 3 25 0 25 -7 0 -7 5 -4 11 6 5 9 17 17 26 17 15 0 15 -2 -1 -13 -17 -12
-15 -13 18 -12 21 1 36 -3 36 -9 0 -6 4 -5 9 3 8 13 12 13 27 0 11 -9 15 -9
10 -1 -6 11 5 17 27 13 4 0 7 3 7 8 0 6 -12 9 -27 7 -16 -1 -34 2 -40 7 -9 6
-13 5 -13 -3 0 -10 -3 -10 -15 0 -8 7 -15 9 -15 5 0 -4 -6 -2 -14 4 -10 9 -16
9 -21 1 -5 -8 -11 -8 -20 0 -9 7 -16 6 -25 -5z m24 -3 c3 -5 -1 -9 -9 -9 -8 0
-12 4 -9 9 3 4 7 8 9 8 2 0 6 -4 9 -8z m70 -10 c3 -5 -1 -9 -9 -9 -8 0 -12 4
-9 9 3 4 7 8 9 8 2 0 6 -4 9 -8z"/>
<path d="M1807 5554 c-4 -4 -72 -16 -94 -17 -13 0 -23 -4 -23 -9 0 -4 -7 -5
-15 -2 -8 4 -22 1 -30 -6 -8 -7 -15 -8 -15 -2 0 5 -27 2 -65 -8 -35 -9 -67
-15 -70 -12 -3 3 -5 -2 -5 -11 0 -9 -5 -17 -11 -17 -5 0 -8 4 -5 9 4 5 -3 7
-14 4 -11 -3 -20 -9 -20 -14 0 -5 -6 -6 -13 -3 -7 2 -31 -11 -52 -30 -31 -28
-37 -37 -26 -45 11 -7 10 -11 -5 -20 -11 -6 -14 -11 -8 -11 7 0 9 -11 6 -27
-4 -23 -2 -25 17 -20 29 7 27 1 -5 -16 -15 -8 -22 -17 -17 -20 18 -11 54 23
48 44 -8 25 -1 24 24 -2 12 -13 26 -19 35 -16 9 4 16 2 16 -3 0 -6 5 -10 11
-10 5 0 7 5 4 10 -3 6 -1 10 4 10 6 0 11 -4 11 -9 0 -5 9 -7 20 -4 12 3 20 0
20 -6 0 -7 4 -10 9 -7 5 3 12 -1 15 -10 4 -9 11 -12 18 -7 19 11 50 14 43 4
-3 -5 -1 -12 5 -16 5 -3 10 -11 10 -17 0 -6 -9 -3 -20 7 -11 10 -20 16 -21 14
0 -2 -2 -12 -4 -22 -3 -14 0 -16 9 -7 10 7 17 6 26 -5 7 -8 17 -12 24 -8 21
14 48 14 40 1 -5 -9 -2 -9 9 1 12 9 17 10 17 2 0 -7 4 -10 9 -6 5 3 12 1 16
-5 4 -6 11 -8 16 -5 5 4 15 3 22 -2 20 -12 37 -12 37 0 0 7 4 6 10 -3 7 -12
12 -12 22 -2 9 9 9 12 -1 12 -7 0 -9 5 -5 11 5 8 1 8 -14 0 -24 -13 -35 -14
-28 -3 4 7 -16 12 -74 15 -14 1 -31 9 -38 17 -8 8 -11 10 -8 3 4 -6 2 -14 -4
-18 -5 -3 -10 -2 -10 3 0 5 -9 12 -21 15 -12 3 -18 10 -15 16 4 6 13 8 21 4 8
-3 15 -1 15 4 0 5 -15 9 -32 8 -18 0 -38 3 -45 8 -6 4 -28 10 -48 13 -21 2
-45 8 -54 13 -9 5 -18 9 -21 8 -3 0 -23 6 -45 13 -29 9 -40 10 -43 1 -2 -6 -8
-11 -14 -11 -7 0 -7 5 1 13 6 8 7 18 3 22 -4 5 -1 5 7 0 9 -5 12 -4 7 3 -4 7
-9 21 -11 33 -4 18 -2 19 12 7 15 -11 16 -11 10 6 -6 15 -3 17 12 13 15 -4 19
0 16 17 -4 20 -4 21 10 2 8 -11 15 -14 15 -7 0 7 4 10 9 6 5 -3 12 -1 16 5 3
5 14 10 24 10 10 0 24 7 31 15 18 21 35 19 19 -2 -13 -16 -12 -17 3 -4 10 7
16 16 14 20 -3 4 5 8 17 8 15 2 18 0 8 -6 -8 -5 -9 -11 -3 -15 5 -3 13 1 16
10 3 8 11 12 17 8 8 -4 9 -3 5 4 -4 7 -2 12 3 12 6 0 11 -6 11 -12 0 -9 4 -8
10 2 9 13 10 13 10 0 0 -9 3 -11 8 -5 7 9 35 16 75 16 9 0 15 4 12 10 -4 5 1
9 9 9 9 0 16 -5 16 -12 0 -6 6 -4 13 7 9 12 19 15 28 10 24 -15 45 -12 45 7 0
12 -7 17 -24 15 -13 -1 -24 -2 -25 -3z m33 -10 c0 -8 -19 -13 -24 -6 -3 5 1 9
9 9 8 0 15 -2 15 -3z m-370 -78 c0 -3 -4 -8 -10 -11 -5 -3 -10 -1 -10 4 0 6 5
11 10 11 6 0 10 -2 10 -4z m-20 -152 c0 -2 -7 -4 -15 -4 -8 0 -15 4 -15 10 0
5 7 7 15 4 8 -4 15 -8 15 -10z m130 -29 c0 -12 -19 -12 -23 0 -4 9 -1 12 9 8
7 -3 14 -7 14 -8z"/>
<path d="M4175 5530 c-4 -6 -11 -8 -16 -5 -5 4 -9 1 -9 -4 0 -6 7 -11 15 -11
8 0 15 5 15 11 0 6 7 3 16 -5 19 -20 40 -11 23 10 -13 16 -35 18 -44 4z"/>
<path d="M4233 5515 c0 -16 4 -22 13 -18 8 3 11 10 8 17 -3 6 2 2 10 -8 9 -11
16 -16 16 -10 0 14 -14 30 -31 36 -12 5 -16 0 -16 -17z"/>
<path d="M4280 5522 c0 -10 20 -38 20 -29 0 4 16 0 36 -8 32 -13 35 -13 30 1
-3 8 -2 12 4 9 6 -3 10 -1 10 4 0 6 -9 12 -20 12 -21 2 -38 5 -42 9 -8 6 -38
7 -38 2z"/>
<path d="M4390 5500 c0 -5 -1 -13 -2 -17 -2 -3 5 -7 15 -9 11 -1 21 -5 24 -8
3 -3 13 -1 22 4 11 5 23 5 32 -2 11 -8 11 -9 -3 -4 -10 3 -20 2 -22 -3 -8 -12
27 -10 43 3 12 9 13 7 8 -12 -5 -23 -5 -23 13 -7 19 17 19 16 15 -6 -3 -17 -2
-20 7 -11 7 7 17 8 30 1 10 -5 18 -7 18 -4 0 4 15 -4 33 -16 21 -16 27 -17 18
-6 -8 10 -9 17 -3 17 11 0 34 -33 29 -41 -1 -2 0 -3 2 -2 9 6 41 -19 36 -28
-4 -5 -11 -7 -16 -4 -5 3 -6 -1 -3 -10 5 -13 9 -13 23 -3 13 10 13 9 -2 -8 -9
-11 -16 -23 -15 -25 2 -2 1 -2 -2 -1 -3 2 -5 8 -5 14 0 6 -8 12 -18 14 -9 1
-14 -2 -11 -7 3 -6 -5 -8 -20 -5 -18 3 -24 1 -20 -6 5 -7 1 -9 -9 -5 -10 3
-17 2 -17 -4 0 -6 -6 -7 -12 -3 -7 4 -10 4 -6 -1 4 -4 26 -8 50 -10 24 -1 35
0 26 2 -10 3 -18 8 -18 13 0 12 33 7 49 -9 12 -11 16 -11 26 3 7 9 14 13 17
10 8 -8 3 70 -6 84 -4 7 -12 10 -17 7 -5 -4 -9 -2 -9 4 0 13 -80 52 -91 45 -5
-3 -9 0 -9 6 0 7 -8 9 -21 5 -16 -5 -19 -4 -14 5 5 8 4 11 -2 7 -5 -3 -20 0
-34 6 -13 7 -33 12 -44 12 -11 0 -32 5 -47 12 -33 16 -38 16 -38 3z m24 -8 c3
-5 -1 -9 -9 -9 -8 0 -12 4 -9 9 3 4 7 8 9 8 2 0 6 -4 9 -8z m211 -70 c-3 -3
-11 0 -18 7 -9 10 -8 11 6 5 10 -3 15 -9 12 -12z m59 -28 c3 -8 2 -12 -4 -9
-6 3 -10 10 -10 16 0 14 7 11 14 -7z m30 -20 c3 -8 2 -12 -4 -9 -6 3 -10 10
-10 16 0 14 7 11 14 -7z"/>
<path d="M4510 5271 c0 -14 2 -14 10 -1 9 14 14 7 11 -13 -1 -5 3 -6 9 -2 6 3
8 10 5 15 -3 4 1 10 7 13 7 2 1 4 -14 4 -19 0 -28 -5 -28 -16z"/>
<path d="M4710 5280 c0 -5 5 -10 10 -10 6 0 10 5 10 10 0 6 -4 10 -10 10 -5 0
-10 -4 -10 -10z"/>
<path d="M1358 5269 c-20 -11 -25 -39 -7 -39 5 0 7 4 4 10 -4 6 1 7 11 3 11
-4 15 -3 10 5 -3 6 -2 13 3 16 19 12 4 -25 -16 -39 -18 -13 -21 -25 -21 -80 1
-45 4 -63 12 -58 8 5 8 3 0 -8 -12 -16 -16 -59 -6 -58 21 3 33 -4 47 -28 9
-16 13 -19 9 -8 -4 11 -8 30 -8 42 -1 16 -4 19 -14 11 -9 -8 -11 -7 -6 6 3 9
11 16 18 16 6 0 3 5 -7 11 -9 6 -15 14 -12 20 4 5 -1 9 -9 9 -9 0 -16 5 -16
10 0 7 7 7 21 -1 16 -8 24 -8 33 2 8 9 8 10 -1 5 -17 -9 -18 35 -1 52 9 9 8
13 -4 17 -13 5 -14 13 -8 35 4 16 6 31 2 34 -3 3 1 6 9 6 11 0 11 2 -1 10 -18
12 -21 12 -42 -1z m5 -100 c-5 -5 -9 3 -11 19 -1 24 0 25 9 9 7 -11 7 -23 2
-28z m37 7 c0 -2 -7 -9 -15 -16 -13 -11 -14 -10 -9 4 5 14 24 23 24 12z m-25
-44 c-3 -3 -11 0 -18 7 -9 10 -8 11 6 5 10 -3 15 -9 12 -12z m-5 -72 c0 -5 -5
-10 -11 -10 -5 0 -7 5 -4 10 3 6 8 10 11 10 2 0 4 -4 4 -10z"/>
<path d="M1503 5258 c11 -5 24 -11 30 -12 7 -1 18 -5 25 -9 7 -5 12 -4 12 2 0
10 -14 15 -32 12 -5 0 -8 3 -8 7 0 4 -10 8 -22 9 -21 2 -21 1 -5 -9z"/>
<path d="M4460 5260 c-9 -6 -10 -10 -3 -10 6 0 15 5 18 10 8 12 4 12 -15 0z"/>
<path d="M4630 5260 c-9 -6 -10 -10 -3 -10 6 0 15 5 18 10 8 12 4 12 -15 0z"/>
<path d="M4683 5255 c-8 -9 -9 -15 -2 -17 6 -2 12 -22 14 -45 1 -23 6 -46 10
-52 3 -6 1 -11 -5 -11 -7 0 -10 -6 -7 -14 3 -7 0 -19 -6 -25 -9 -9 -8 -11 6
-6 10 4 17 2 17 -4 0 -10 -14 -15 -33 -12 -5 1 -6 -3 -2 -9 3 -6 12 -7 18 -3
7 4 6 0 -2 -10 -12 -15 -11 -17 5 -17 17 0 17 -1 -1 -13 -14 -11 -15 -16 -5
-22 9 -5 11 -4 6 4 -5 7 -2 10 6 9 8 -2 13 7 13 25 -1 15 2 27 6 27 10 0 6 34
-5 42 -6 4 -5 12 2 20 8 10 8 18 1 25 -7 7 -8 13 0 17 14 9 2 37 -13 30 -6 -3
-4 0 4 8 16 14 24 61 9 52 -5 -3 -9 0 -9 5 0 15 -13 13 -27 -4z m25 -30 c-3
-3 -9 2 -12 12 -6 14 -5 15 5 6 7 -7 10 -15 7 -18z"/>
<path d="M1758 5253 c7 -3 16 -2 19 1 4 3 -2 6 -13 5 -11 0 -14 -3 -6 -6z"/>
<path d="M1797 5249 c7 -7 15 -10 18 -7 3 3 -2 9 -12 12 -14 6 -15 5 -6 -5z"/>
<path d="M4589 5248 c-8 -7 -25 -13 -38 -12 -13 1 -40 -2 -59 -7 -25 -5 -39
-4 -44 4 -6 9 -8 8 -8 -2 0 -7 -6 -11 -15 -8 -8 4 -17 2 -21 -4 -3 -5 -14 -7
-25 -4 -12 4 -19 2 -19 -7 0 -10 -3 -9 -10 2 -9 13 -10 13 -10 0 0 -13 -1 -13
-10 0 -5 8 -10 11 -10 5 0 -5 -24 -10 -53 -10 -63 1 -71 -3 -56 -21 9 -12 15
-12 27 -2 13 11 14 11 8 0 -7 -12 -4 -12 13 -2 17 9 26 9 37 0 11 -10 15 -9
20 5 5 13 9 14 15 3 7 -10 9 -10 9 2 0 13 1 13 10 0 6 -9 10 -10 10 -3 0 7 9
10 22 8 12 -3 25 -1 28 4 3 5 30 12 60 15 30 4 66 8 80 9 31 4 67 23 59 32 -4
3 -13 0 -20 -7z"/>
<path d="M1960 5236 c0 -3 9 -10 20 -16 11 -6 20 -8 20 -6 0 3 -9 10 -20 16
-11 6 -20 8 -20 6z"/>
<path d="M2014 5205 c1 -21 36 -35 36 -15 0 7 -7 9 -16 6 -10 -4 -14 -1 -11 6
2 7 11 12 20 10 8 -1 18 2 21 7 3 5 -7 8 -23 7 -21 0 -28 -5 -27 -21z"/>
<path d="M2097 5223 c-12 -12 4 -22 28 -17 23 4 24 3 13 -16 -7 -11 -14 -16
-16 -10 -2 5 -18 10 -34 10 -33 0 -30 -14 3 -16 10 -1 21 -2 24 -4 3 -1 24 -2
48 -2 23 0 47 -3 52 -7 16 -9 39 -7 47 4 5 6 8 6 8 -1 0 -7 22 -12 53 -13 28
-1 70 -4 92 -7 22 -3 46 -5 53 -4 6 0 18 0 25 0 59 2 341 -11 348 -15 5 -4 9
-1 9 5 0 6 5 8 11 4 14 -8 503 -8 714 1 400 15 457 19 474 30 6 3 11 2 11 -4
0 -7 9 -7 29 0 15 5 32 9 37 8 5 -1 26 -1 48 0 33 1 37 3 26 16 -7 8 -15 13
-19 11 -7 -4 -141 -15 -261 -22 -41 -2 -118 -7 -170 -10 -150 -9 -970 -13
-970 -5 0 4 -7 8 -15 8 -8 0 -15 -3 -15 -7 0 -3 -20 -6 -45 -6 -25 1 -45 4
-45 7 0 3 -7 6 -15 6 -8 0 -15 -5 -15 -10 0 -5 -6 -5 -13 2 -8 6 -24 8 -37 6
-13 -3 -35 3 -49 12 -23 15 -89 28 -76 14 4 -3 15 -7 26 -7 35 -3 39 -4 39
-13 0 -4 -17 -5 -37 -2 -21 4 -68 6 -105 6 -38 -1 -68 3 -68 8 0 4 4 5 10 2 6
-4 7 1 3 11 -4 11 -8 13 -11 6 -2 -7 -9 -9 -15 -5 -7 4 -32 8 -56 9 -23 1 -38
-2 -31 -6 6 -4 27 -6 46 -5 19 2 36 -1 39 -5 3 -4 -31 -7 -74 -6 -63 1 -77 4
-69 14 8 9 14 9 24 1 10 -8 14 -8 14 0 0 12 -2 13 -40 15 -14 1 -30 5 -36 9
-6 3 -14 4 -17 0z"/>
<path d="M1854 5205 c4 -24 16 -30 16 -7 0 12 -4 22 -9 22 -5 0 -8 -7 -7 -15z"/>
<path d="M1881 5198 c0 -13 3 -18 5 -11 4 8 13 9 28 3 17 -6 23 -5 23 6 0 8
-5 13 -11 11 -6 -3 -19 0 -28 5 -15 7 -18 4 -17 -14z"/>
<path d="M1950 5195 c0 -6 6 -12 13 -12 8 0 14 6 14 12 0 6 -6 12 -14 12 -7 0
-13 -6 -13 -12z"/>
<path d="M2337 5198 c2 -5 13 -8 24 -8 10 0 19 3 19 8 0 4 -11 7 -24 7 -13 0
-22 -3 -19 -7z"/>
<path d="M2418 5193 c7 -3 16 -2 19 1 4 3 -2 6 -13 5 -11 0 -14 -3 -6 -6z"/>
<path d="M2537 5190 c13 -14 113 -22 113 -9 0 4 -19 6 -42 5 -24 -1 -52 2 -63
7 -16 8 -18 7 -8 -3z"/>
<path d="M2685 5180 c-3 -5 -1 -10 4 -10 6 0 11 5 11 10 0 6 -2 10 -4 10 -3 0
-8 -4 -11 -10z"/>
<path d="M2710 5185 c0 -7 30 -13 34 -7 3 4 -4 9 -15 9 -10 1 -19 0 -19 -2z"/>
<path d="M1349 5017 c-6 -10 -5 -86 1 -82 4 3 14 -3 21 -13 12 -15 12 -16 -2
-5 -9 7 -19 10 -22 6 -12 -11 -8 -68 6 -82 10 -10 8 -11 -7 -5 -15 6 -17 4
-10 -7 4 -8 7 -24 5 -36 -2 -16 3 -23 15 -23 14 0 15 3 6 12 -15 15 -15 28 0
28 6 0 8 -3 5 -7 -4 -3 -2 -12 4 -19 9 -11 6 -16 -12 -22 -15 -6 -19 -11 -10
-16 6 -4 19 -2 27 5 12 10 13 9 8 -5 -4 -11 -14 -16 -25 -13 -16 4 -18 -5 -18
-129 0 -78 4 -134 10 -134 5 0 12 0 15 1 8 1 24 -22 24 -33 0 -5 -5 -8 -11 -8
-5 0 -7 5 -4 10 3 6 4 10 1 10 -2 0 -11 3 -19 6 -14 5 -16 -13 -15 -134 0
-133 1 -140 19 -137 11 2 17 0 14 -6 -4 -5 -10 -7 -15 -4 -5 3 -11 1 -15 -5
-5 -8 -6 -124 -3 -235 0 -11 -10 -195 -17 -320 -3 -44 -7 -96 -10 -115 -2 -19
-7 -71 -10 -115 -6 -76 -8 -106 -20 -227 -12 -124 -18 -182 -40 -378 -2 -25
-7 -70 -10 -100 -4 -30 -8 -66 -10 -80 -2 -14 -6 -47 -10 -75 -3 -27 -8 -66
-10 -85 -3 -19 -7 -59 -11 -89 -3 -30 -7 -62 -9 -70 -1 -9 -6 -41 -10 -71 -8
-67 -12 -92 -20 -150 -4 -25 -8 -56 -10 -70 -2 -14 -15 -92 -29 -173 -40 -229
-33 -331 30 -448 40 -73 129 -167 226 -236 45 -32 96 -72 115 -90 18 -17 33
-29 33 -26 0 4 8 -1 18 -9 15 -13 87 -50 105 -54 4 -1 10 -3 15 -4 4 -2 12 -4
17 -4 17 -2 11 -20 -8 -23 -10 -2 -16 1 -13 6 3 5 -3 7 -14 4 -27 -7 -21 -13
21 -18 18 -2 40 1 48 8 12 9 13 9 7 0 -4 -8 -1 -13 9 -13 10 0 13 5 9 13 -6 9
-5 9 8 0 8 -7 18 -9 22 -5 4 4 6 1 4 -7 -2 -9 6 -16 17 -18 16 -3 17 -2 5 6
-9 7 -10 11 -3 11 20 0 24 -18 6 -29 -16 -9 -15 -10 5 -8 21 1 27 10 23 31 -1
5 5 4 13 -4 9 -7 16 -18 16 -24 0 -6 -5 -4 -10 4 -8 13 -10 12 -10 -2 0 -17 9
-21 28 -16 4 1 6 9 5 18 -2 9 0 10 3 3 3 -7 10 -13 15 -13 6 0 7 6 3 13 -6 9
-5 9 8 0 8 -7 18 -10 21 -6 4 3 12 2 19 -4 7 -5 23 -8 36 -7 12 0 22 -3 22 -7
0 -5 5 -9 11 -9 5 0 7 5 3 11 -4 8 0 7 15 -1 12 -6 19 -15 16 -21 -11 -16 7
-10 21 8 13 17 14 17 8 -1 -6 -15 -4 -17 12 -9 18 9 33 9 52 3 4 -2 22 -3 41
-4 20 -1 36 -7 39 -15 3 -10 0 -12 -14 -7 -11 5 -26 10 -34 13 -13 4 -13 4 0
-6 8 -6 11 -11 7 -11 -15 0 10 -33 27 -36 9 -1 14 2 10 7 -3 5 -9 7 -14 4 -4
-3 -10 2 -14 10 -6 18 -1 19 25 5 14 -8 27 -7 49 5 16 8 32 15 35 15 3 0 6 0
8 1 22 7 36 5 34 -4 -2 -11 2 -12 34 -4 6 1 14 -5 16 -13 4 -13 3 -13 -6 0 -6
8 -11 10 -11 4 0 -6 8 -18 17 -25 9 -8 14 -9 10 -3 -4 7 6 11 29 12 32 1 34 0
23 -20 -6 -12 -7 -18 -1 -14 6 3 12 1 14 -6 3 -7 7 -5 11 6 5 11 3 15 -5 10
-7 -5 -9 -2 -5 8 3 9 1 20 -4 25 -6 6 -4 10 6 10 8 0 15 -6 15 -14 0 -7 4 -13
10 -13 5 0 9 3 7 8 -1 4 3 8 8 10 17 4 12 -22 -7 -36 -10 -7 -18 -17 -18 -23
0 -5 9 0 21 12 17 17 23 18 37 7 9 -7 14 -8 10 -4 -4 5 -3 15 3 22 8 10 6 12
-10 9 -14 -3 -18 0 -14 12 3 8 9 11 12 6 11 -14 44 -16 36 -1 -3 7 3 2 14 -11
20 -22 26 -20 21 4 -1 6 4 4 11 -2 10 -10 9 -16 -4 -31 -25 -28 -20 -35 6 -9
13 12 21 28 19 34 -2 7 1 13 8 13 6 0 9 -4 5 -9 -3 -6 5 -15 17 -22 20 -11 22
-11 10 3 -9 12 -10 18 -2 23 6 4 14 4 17 1 4 -3 0 -6 -8 -6 -10 -1 -9 -3 3
-11 10 -5 15 -17 12 -27 -5 -16 -5 -16 5 0 7 9 20 15 31 13 13 -2 20 1 18 8
-2 7 2 13 7 14 6 2 9 -9 8 -24 -1 -14 0 -23 3 -20 5 4 7 13 13 47 1 3 5 -2 11
-10 6 -9 5 -20 -3 -29 -7 -8 0 -6 14 4 15 11 25 23 23 27 -2 4 1 10 7 14 8 5
9 3 4 -6 -5 -9 -2 -10 14 -5 13 4 21 2 21 -5 0 -6 5 -8 13 -3 16 10 77 11 71
1 -3 -4 2 -8 10 -8 9 0 16 -4 16 -10 0 -5 5 -10 11 -10 5 0 8 4 5 9 -3 5 1 14
10 21 11 10 18 10 26 2 14 -14 32 -16 24 -4 -3 5 10 8 29 8 18 0 31 -4 29 -8
-3 -5 0 -8 7 -8 8 0 7 -5 -2 -17 -13 -16 -12 -17 3 -4 10 7 15 17 12 22 -3 5
0 9 6 9 6 0 8 5 4 12 -4 7 -3 8 4 4 6 -4 9 -13 5 -21 -4 -11 -1 -13 11 -9 9 3
14 9 12 13 -3 4 13 7 35 7 40 0 46 -5 29 -22 -6 -6 -5 -15 1 -24 9 -12 10 -12
5 3 -3 11 0 20 9 23 8 4 13 9 11 13 -2 3 7 7 21 8 18 1 22 -2 14 -10 -14 -14
-14 -27 0 -27 5 0 7 5 3 12 -5 8 -2 9 9 5 9 -3 19 -1 23 5 4 7 3 8 -4 4 -7 -4
-12 -2 -12 3 0 7 14 9 35 6 20 -2 34 -1 31 3 -2 4 11 7 30 8 30 1 32 -1 16
-13 -15 -13 -15 -13 7 -7 15 4 21 2 17 -4 -3 -6 -2 -13 3 -16 4 -3 8 2 7 12 0
9 3 18 8 19 5 1 13 7 17 15 5 7 9 9 9 3 0 -5 16 -11 35 -12 21 -2 35 2 35 9 0
6 3 8 6 5 4 -4 1 -14 -6 -22 -9 -11 -10 -19 -3 -26 8 -8 13 -7 18 2 6 8 4 10
-5 4 -8 -5 -11 -3 -8 5 5 17 48 21 68 7 8 -6 12 -8 8 -3 -4 5 -1 15 7 22 15
15 29 19 21 6 -2 -4 4 -13 15 -20 11 -7 19 -8 19 -2 0 5 -4 10 -10 10 -5 0
-10 7 -10 15 0 19 42 14 48 -6 3 -11 1 -11 -8 1 -10 13 -11 13 -7 0 2 -8 9
-16 15 -16 7 -1 19 -2 28 -3 9 0 12 -6 8 -13 -4 -7 -3 -8 5 -4 14 9 5 26 -15
26 -24 0 -16 30 9 30 12 1 39 1 59 2 21 0 36 3 34 7 -4 6 14 8 101 13 23 1 40
5 38 8 -2 4 8 6 23 4 38 -3 37 -3 24 -16 -10 -10 -15 -10 -22 2 -5 8 -10 11
-10 5 0 -5 5 -17 10 -25 8 -13 11 -12 24 5 9 11 13 26 11 33 -3 7 0 10 6 7 5
-4 17 -1 26 7 14 11 16 11 8 -2 -4 -8 -15 -24 -24 -34 -13 -16 -13 -18 -1 -11
8 5 23 20 34 33 10 12 21 21 23 18 3 -3 15 -1 27 5 20 10 20 9 2 -5 -10 -9
-22 -13 -26 -11 -8 5 -33 -45 -26 -52 2 -2 7 4 10 15 7 22 49 44 69 36 8 -3
20 3 28 13 13 16 12 17 -4 4 -9 -8 -20 -11 -24 -7 -9 8 -1 15 23 19 10 1 25 6
32 11 7 4 16 5 19 2 3 -3 15 0 27 6 23 13 32 16 61 20 11 2 26 9 33 16 8 7 19
9 25 5 8 -5 6 -9 -5 -11 -10 -2 -18 -8 -18 -13 0 -6 8 -6 20 1 13 7 17 16 13
28 -6 15 -5 15 10 4 9 -8 21 -11 26 -8 5 4 14 -2 20 -11 6 -10 11 -13 11 -8 0
17 -21 34 -36 28 -27 -10 -14 5 22 26 19 12 40 19 45 15 5 -3 8 -2 7 3 -2 4 1
9 6 10 5 1 12 5 15 10 11 15 52 34 61 28 5 -3 8 -11 6 -18 -1 -7 -1 -9 1 -4 3
4 10 4 16 0 7 -3 4 3 -6 14 -18 21 -17 21 40 54 76 44 109 77 182 183 90 132
123 259 98 371 -5 22 -11 51 -13 65 -2 14 -9 45 -14 70 -13 59 -43 241 -55
330 -3 25 -10 70 -15 100 -5 30 -12 78 -15 105 -3 28 -8 66 -11 85 -2 19 -7
53 -10 75 -2 22 -7 56 -9 75 -3 19 -7 58 -10 85 -3 28 -7 66 -10 85 -4 35 -10
86 -20 190 -3 30 -7 75 -10 100 -3 25 -7 83 -10 130 -3 47 -8 96 -10 110 -3
22 -6 77 -20 370 -6 126 -7 741 -2 747 3 3 2 16 -3 29 -5 13 -6 24 -2 24 4 0
8 9 8 20 0 11 -4 20 -8 20 -4 0 -8 -4 -8 -10 0 -5 -8 -10 -17 -10 -14 0 -15
-2 -4 -9 11 -7 11 -9 0 -14 -10 -4 -10 -6 -1 -6 6 -1 12 -6 12 -12 0 -5 -4 -8
-8 -5 -4 2 -8 -6 -8 -19 0 -13 4 -21 8 -19 4 3 8 0 8 -5 0 -6 -5 -11 -11 -11
-6 0 -3 -7 5 -16 20 -19 21 -31 2 -15 -11 9 -15 8 -20 -4 -3 -9 -2 -14 2 -11
4 2 14 1 22 -5 13 -7 13 -9 -1 -9 -9 0 -16 -7 -16 -15 0 -8 4 -15 8 -15 4 0
10 -7 13 -16 5 -13 4 -14 -7 -6 -10 9 -14 8 -14 -3 0 -8 5 -15 11 -15 6 0 4
-5 -4 -11 -11 -8 -12 -12 -3 -16 7 -2 13 -9 13 -14 0 -6 -6 -7 -12 -3 -8 5 -7
0 2 -11 8 -10 10 -16 4 -12 -7 4 -11 -4 -12 -23 0 -19 5 -30 16 -33 15 -4 15
-5 -1 -6 -10 0 -15 -6 -12 -11 4 -6 11 -7 17 -4 7 4 8 2 4 -5 -4 -6 -12 -9
-17 -5 -6 3 -7 -7 -4 -26 4 -24 2 -30 -7 -24 -10 6 -11 5 -1 -8 7 -8 9 -19 5
-23 -4 -5 0 -6 9 -3 9 4 16 1 16 -7 0 -7 -6 -11 -13 -8 -8 3 -11 -2 -10 -14 2
-10 -1 -24 -7 -30 -7 -9 -5 -13 6 -13 11 0 15 7 12 21 -3 12 -1 19 2 15 13
-13 11 -37 -3 -43 -8 -3 -11 -9 -8 -14 3 -5 -1 -9 -8 -9 -11 0 -11 -2 0 -9 10
-6 9 -12 -5 -29 -15 -17 -22 -19 -43 -10 -14 6 -36 12 -51 13 -14 2 -41 6 -60
9 -18 3 -74 10 -124 16 -49 6 -106 12 -125 15 -19 2 -64 7 -100 10 -36 3 -81
8 -100 10 -88 9 -160 16 -225 20 -38 3 -92 7 -120 9 -74 7 -274 17 -400 21
-60 2 -113 4 -116 4 -23 3 -116 271 -123 353 -3 30 -7 66 -10 79 -3 13 -8 35
-10 49 -3 14 -12 59 -21 100 -9 41 -19 86 -21 99 -3 13 -9 31 -13 40 -5 9 -9
19 -10 24 -2 27 -27 89 -41 102 -14 13 -277 105 -301 105 -6 0 -28 9 -50 19
-21 11 -36 14 -32 8 4 -8 1 -7 -9 1 -22 17 -55 25 -105 23 -70 -1 -92 -5 -87
-13 5 -7 -18 -12 -38 -9 -5 0 -8 -4 -8 -10 0 -5 -4 -7 -10 -4 -5 3 -10 0 -10
-7 0 -10 -2 -10 -9 1 -7 11 -11 9 -20 -8 -7 -11 -15 -21 -20 -21 -5 0 -59 -51
-122 -113 -93 -92 -128 -119 -189 -149 -67 -32 -129 -52 -145 -48 -4 1 -22
-11 -42 -26 -20 -15 -33 -21 -29 -13 4 8 -1 4 -10 -8 -9 -13 -23 -23 -30 -23
-8 0 -14 -5 -14 -11 0 -5 -4 -7 -10 -4 -6 4 -7 -1 -3 -11 5 -14 3 -16 -12 -10
-11 4 -16 4 -12 0 4 -4 -1 -13 -11 -21 -9 -8 -11 -11 -3 -7 9 5 12 3 7 -4 -4
-7 -14 -12 -23 -12 -9 0 -13 -6 -10 -14 3 -8 -1 -17 -10 -20 -8 -4 -13 -13 -9
-21 3 -8 0 -15 -6 -15 -6 0 -9 -3 -5 -6 3 -4 0 -19 -9 -35 -8 -16 -14 -31 -14
-34 2 -9 -40 -116 -71 -183 -19 -41 -33 -61 -41 -56 -6 4 -8 3 -4 -4 16 -26
-17 -21 -41 7 -27 31 -38 61 -22 61 5 0 9 7 9 15 0 8 5 15 10 15 6 0 4 -12 -4
-29 -14 -26 -12 -41 4 -41 4 0 7 8 7 18 0 36 3 43 16 36 7 -5 6 0 -3 11 -8 10
-15 35 -16 56 -1 30 2 36 15 32 11 -4 10 -1 -4 10 -15 13 -17 19 -7 25 9 6 6
12 -13 20 -25 12 -34 32 -14 32 5 0 8 -4 5 -9 -3 -5 1 -12 10 -15 13 -5 15 -1
10 20 -4 14 -3 23 1 21 4 -3 8 7 8 23 0 18 -4 26 -12 23 -7 -3 -11 -8 -9 -12
7 -11 -12 -36 -21 -27 -4 5 -2 11 5 13 10 4 10 8 1 19 -9 11 -9 18 1 29 9 10
9 15 1 15 -6 0 -11 5 -11 11 0 8 5 7 15 -1 11 -9 13 -16 5 -24 -17 -17 -11
-27 9 -14 10 6 17 17 14 24 -2 7 1 22 7 34 8 15 8 20 1 16 -6 -4 -11 -1 -11 8
0 8 4 18 10 21 6 4 4 16 -6 31 -16 23 -16 24 2 18 14 -4 15 -3 5 4 -10 7 -11
14 -2 31 11 19 8 25 -11 22 -5 0 -8 3 -8 9 0 6 -5 9 -12 8 -7 -2 -12 11 -14
30 -1 18 3 32 10 32 6 0 4 4 -4 10 -8 5 -11 13 -6 17 8 7 16 -4 18 -24 1 -5 8
-14 17 -21 9 -8 10 -10 2 -6 -7 3 -17 0 -22 -7 -15 -24 -10 -31 13 -15 23 17
33 46 15 46 -5 0 -7 3 -4 7 4 3 1 13 -6 21 -10 13 -9 15 4 10 9 -4 16 -1 16 8
0 7 -3 11 -7 9 -10 -6 -9 58 2 72 5 7 5 14 -2 18 -5 3 -10 11 -10 16 0 6 6 7
13 3 7 -5 6 -1 -2 10 -8 10 -14 33 -13 51 2 18 -2 36 -8 40 -8 5 -8 11 0 20
14 17 5 51 -15 59 -8 3 -16 4 -16 3z m21 -47 c0 -5 -5 -10 -11 -10 -5 0 -7 5
-4 10 3 6 8 10 11 10 2 0 4 -4 4 -10z m0 -81 c0 -6 -4 -7 -10 -4 -5 3 -10 11
-10 16 0 6 5 7 10 4 6 -3 10 -11 10 -16z m5 -40 c4 -11 4 -23 1 -26 -3 -4 -6
1 -6 10 0 10 -4 17 -10 17 -5 0 -10 5 -10 10 0 18 19 10 25 -11z m25 -43 c0
-3 -4 -8 -10 -11 -5 -3 -10 -1 -10 4 0 6 5 11 10 11 6 0 10 -2 10 -4z m-17
-233 c-9 -7 -13 -13 -8 -13 5 0 4 -5 -3 -12 -7 -7 -8 -17 -2 -28 10 -19 -3
-49 -14 -31 -4 6 -2 11 4 11 8 0 7 6 -1 21 -8 16 -8 23 1 29 9 5 9 9 1 14 -19
12 -12 24 14 22 23 -1 24 -2 8 -13z m-15 -348 c0 -32 -9 -26 -12 9 -2 14 0 23
4 21 4 -3 8 -16 8 -30z m-5 -80 c-3 -9 -8 -14 -10 -11 -3 3 -2 9 2 15 9 16 15
13 8 -4z m3334 -27 c-3 -8 -6 -5 -6 6 -1 11 2 17 5 13 3 -3 4 -12 1 -19z
m-2453 -3305 c-10 -7 -23 -13 -28 -12 -6 0 -5 3 2 6 6 2 10 8 8 12 -3 4 4 7
15 7 19 0 19 -1 3 -13z m166 -13 c0 -5 -2 -10 -4 -10 -3 0 -8 5 -11 10 -3 6
-1 10 4 10 6 0 11 -4 11 -10z m1235 2 c-8 -9 -55 -11 -55 -3 0 4 13 7 30 7 16
0 28 -2 25 -4z m-915 -20 c0 -5 -7 -9 -15 -9 -8 0 -15 4 -15 9 0 4 7 8 15 8 8
0 15 -4 15 -8z m260 -2 c0 -5 -2 -10 -4 -10 -3 0 -8 5 -11 10 -3 6 -1 10 4 10
6 0 11 -4 11 -10z"/>
<path d="M4695 4984 c-10 -8 -14 -14 -8 -14 6 0 9 -9 6 -20 -3 -12 0 -20 6
-20 7 0 9 -4 6 -10 -3 -5 -1 -10 5 -10 7 0 9 12 6 32 -3 18 0 35 6 39 5 4 6 9
1 12 -4 3 -17 -1 -28 -9z"/>
<path d="M1380 4946 c0 -2 7 -6 15 -10 8 -3 15 -1 15 4 0 6 -7 10 -15 10 -8 0
-15 -2 -15 -4z"/>
<path d="M4679 4916 c12 -14 10 -50 -2 -62 -10 -11 -9 -24 3 -24 6 0 9 5 8 11
-2 6 4 14 12 16 10 3 11 2 4 -4 -6 -4 -10 -16 -8 -26 1 -9 -2 -14 -8 -11 -5 4
-5 -4 2 -16 7 -13 8 -20 2 -16 -6 3 -13 2 -17 -4 -3 -5 2 -10 12 -10 15 0 16
-2 3 -10 -14 -9 -7 -14 13 -11 5 1 6 -3 2 -9 -3 -5 -13 -10 -21 -10 -8 0 -14
-5 -14 -11 0 -6 7 -9 15 -6 8 4 17 2 20 -4 4 -5 1 -8 -5 -7 -7 2 -16 -8 -21
-22 -8 -23 -8 -23 5 -7 13 17 14 16 12 -7 0 -13 -4 -22 -7 -20 -4 2 -9 -5 -12
-16 -3 -11 -1 -20 4 -20 5 0 9 5 9 11 0 5 5 7 11 3 8 -5 6 -10 -5 -16 -13 -7
-14 -13 -4 -31 10 -21 10 -21 -7 -7 -17 14 -17 13 -8 -5 6 -11 11 -23 12 -27
1 -5 3 -8 6 -8 3 0 8 0 13 0 4 0 7 82 8 182 1 163 -1 183 -18 200 -21 21 -36
25 -19 4z"/>
<path d="M4596 4673 c-6 -14 -5 -15 5 -6 7 7 10 15 7 18 -3 3 -9 -2 -12 -12z"/>
<path d="M1388 4613 c7 -3 16 -2 19 1 4 3 -2 6 -13 5 -11 0 -14 -3 -6 -6z"/>
<path d="M4662 4517 c10 -8 14 -18 10 -22 -4 -5 -1 -5 6 -1 15 9 16 -6 0 -22
-16 -16 2 -15 23 1 11 8 14 18 8 32 -4 11 -8 17 -8 13 -1 -4 -13 -3 -28 2 -25
9 -26 8 -11 -3z"/>
<path d="M4596 4118 c3 -5 10 -6 15 -3 13 9 11 12 -6 12 -8 0 -12 -4 -9 -9z"/>
<path d="M4595 4040 c-3 -5 -1 -10 4 -10 6 0 11 5 11 10 0 6 -2 10 -4 10 -3 0
-8 -4 -11 -10z"/>
<path d="M4640 3960 c-9 -6 -10 -10 -3 -10 6 0 15 5 18 10 8 12 4 12 -15 0z"/>
<path d="M1310 1120 c0 -5 5 -10 11 -10 5 0 7 5 4 10 -3 6 -8 10 -11 10 -2 0
-4 -4 -4 -10z"/>
<path d="M4664 1078 l-19 -23 23 19 c12 11 22 21 22 23 0 8 -8 2 -26 -19z"/>
<path d="M1226 1082 c-3 -5 1 -9 9 -9 8 0 12 4 9 9 -3 4 -7 8 -9 8 -2 0 -6 -4
-9 -8z"/>
<path d="M1259 1048 c-5 -18 -6 -38 -1 -34 7 8 12 36 6 36 -2 0 -4 -1 -5 -2z"/>
<path d="M1390 1038 c0 -4 10 -6 23 -4 12 2 30 -1 39 -6 13 -6 16 -5 13 5 -6
13 -75 18 -75 5z"/>
<path d="M4640 1020 c-9 -6 -10 -10 -3 -10 6 0 15 5 18 10 8 12 4 12 -15 0z"/>
<path d="M4673 1013 c0 -9 4 -10 14 -2 7 6 13 12 13 14 0 1 -6 2 -13 2 -8 0
-14 -6 -14 -14z"/>
<path d="M4713 1013 c0 -9 4 -10 14 -2 7 6 13 12 13 14 0 1 -6 2 -13 2 -8 0
-14 -6 -14 -14z"/>
<path d="M1370 1016 c0 -2 8 -10 18 -17 15 -13 16 -12 3 4 -13 16 -21 21 -21
13z"/>
<path d="M1490 1005 c0 -8 4 -15 10 -15 5 0 7 7 4 15 -4 8 -8 15 -10 15 -2 0
-4 -7 -4 -15z"/>
<path d="M1190 1000 c0 -5 5 -10 11 -10 5 0 7 5 4 10 -3 6 -8 10 -11 10 -2 0
-4 -4 -4 -10z"/>
<path d="M1413 995 c0 -7 6 -11 14 -8 7 3 13 6 13 8 0 2 -6 5 -13 8 -8 3 -14
-1 -14 -8z"/>
<path d="M1460 1000 c-9 -6 -10 -10 -3 -10 6 0 15 5 18 10 8 12 4 12 -15 0z"/>
<path d="M4560 995 c-7 -9 -8 -15 -2 -15 5 0 12 7 16 15 3 8 4 15 2 15 -2 0
-9 -7 -16 -15z"/>
<path d="M4600 995 c-7 -9 -8 -15 -2 -15 5 0 12 7 16 15 3 8 4 15 2 15 -2 0
-9 -7 -16 -15z"/>
<path d="M4770 999 c0 -5 5 -7 10 -4 6 3 10 8 10 11 0 2 -4 4 -10 4 -5 0 -10
-5 -10 -11z"/>
<path d="M4640 996 c0 -2 7 -7 16 -10 8 -3 12 -2 9 4 -6 10 -25 14 -25 6z"/>
<path d="M1529 984 c6 -3 8 -11 5 -18 -6 -15 21 -46 39 -46 6 0 1 7 -11 16
-12 8 -21 23 -20 31 2 9 -3 17 -10 19 -7 1 -8 0 -3 -2z"/>
<path d="M4494 978 c-7 -11 5 -28 19 -27 9 0 9 2 0 6 -7 2 -13 9 -13 14 0 6 4
8 8 5 4 -2 14 -1 22 4 11 7 9 9 -8 7 -13 -1 -26 -5 -28 -9z"/>
<path d="M1395 956 c0 -13 5 -23 11 -23 6 0 9 9 6 19 -7 27 -17 29 -17 4z"/>
<path d="M1438 973 c7 -3 16 -2 19 1 4 3 -2 6 -13 5 -11 0 -14 -3 -6 -6z"/>
<path d="M1478 973 c7 -3 16 -2 19 1 4 3 -2 6 -13 5 -11 0 -14 -3 -6 -6z"/>
<path d="M4635 969 c-4 -6 -5 -12 -2 -15 2 -3 7 2 10 11 7 17 1 20 -8 4z"/>
<path d="M4699 968 c15 -21 31 -23 31 -6 0 6 -3 8 -7 5 -3 -4 -13 -1 -22 6
-14 11 -14 10 -2 -5z"/>
<path d="M1330 961 c0 -6 4 -13 10 -16 6 -3 7 1 4 9 -7 18 -14 21 -14 7z"/>
<path d="M1560 960 c0 -5 5 -10 10 -10 6 0 10 5 10 10 0 6 -4 10 -10 10 -5 0
-10 -4 -10 -10z"/>
<path d="M4534 954 c3 -19 36 -41 36 -24 0 5 -7 10 -15 10 -9 0 -12 6 -9 15 4
8 2 15 -4 15 -6 0 -9 -7 -8 -16z"/>
<path d="M4570 962 c0 -5 7 -9 15 -9 8 0 12 4 9 9 -3 4 -9 8 -15 8 -5 0 -9 -4
-9 -8z"/>
<path d="M1464 944 c-18 -14 -18 -15 4 -4 12 6 22 13 22 15 0 8 -5 6 -26 -11z"/>
<path d="M1610 950 c0 -6 -4 -8 -10 -5 -5 3 -10 1 -10 -4 0 -13 10 -14 29 -2
9 6 10 11 2 15 -6 4 -11 2 -11 -4z"/>
<path d="M1499 948 c-6 -21 -5 -37 2 -32 5 3 7 9 4 14 -3 4 1 11 7 13 10 4 10
6 1 6 -7 1 -13 0 -14 -1z"/>
<path d="M4599 924 c-5 -15 -8 -29 -5 -31 2 -2 8 10 14 26 13 38 5 41 -9 5z"/>
<path d="M4426 925 c-11 -8 -15 -15 -9 -15 6 0 16 7 23 15 16 19 11 19 -14 0z"/>
<path d="M4461 922 c-1 -13 -5 -21 -10 -17 -6 3 -14 -3 -20 -12 -9 -16 -12
-16 -21 -3 -6 9 -10 10 -10 3 0 -20 22 -27 35 -10 7 9 15 14 18 10 9 -8 20 23
14 39 -3 7 -6 3 -6 -10z"/>
<path d="M4710 936 c0 -2 8 -10 18 -17 15 -13 16 -12 3 4 -13 16 -21 21 -21
13z"/>
<path d="M1254 916 c1 -8 5 -18 8 -22 4 -3 5 1 4 10 -1 8 -5 18 -8 22 -4 3 -5
-1 -4 -10z"/>
<path d="M1326 922 c-3 -5 1 -9 9 -9 8 0 12 4 9 9 -3 4 -7 8 -9 8 -2 0 -6 -4
-9 -8z"/>
<path d="M1420 920 c-9 -6 -10 -10 -3 -10 6 0 15 5 18 10 8 12 4 12 -15 0z"/>
<path d="M1465 919 c-4 -6 -5 -12 -2 -15 2 -3 7 2 10 11 7 17 1 20 -8 4z"/>
<path d="M1516 915 c-9 -26 -7 -32 5 -12 6 10 9 21 6 23 -2 3 -7 -2 -11 -11z"/>
<path d="M4344 919 c-3 -6 -3 -13 0 -16 3 -4 6 0 6 7 0 9 6 8 20 -5 11 -10 20
-14 20 -9 0 16 -38 35 -46 23z"/>
<path d="M4500 926 c0 -2 7 -6 15 -10 8 -3 15 -1 15 4 0 6 -7 10 -15 10 -8 0
-15 -2 -15 -4z"/>
<path d="M4300 905 c-9 -10 -9 -15 -1 -15 6 0 11 5 11 11 0 5 5 7 12 3 7 -4 8
-3 4 4 -9 15 -11 15 -26 -3z"/>
<path d="M1295 900 c-3 -5 -1 -10 4 -10 6 0 11 5 11 10 0 6 -2 10 -4 10 -3 0
-8 -4 -11 -10z"/>
<path d="M1355 901 c-3 -5 -2 -12 3 -15 5 -3 9 1 9 9 0 17 -3 19 -12 6z"/>
<path d="M1536 903 c-7 -8 13 -33 27 -33 6 0 2 7 -9 15 -19 15 -19 16 1 13 11
-2 24 -7 28 -13 5 -6 7 -4 5 4 -4 15 -41 25 -52 14z"/>
<path d="M1610 890 c-7 -13 -7 -20 0 -20 5 0 10 7 10 15 0 9 6 12 15 9 12 -5
13 -10 4 -20 -6 -8 -9 -14 -6 -14 2 0 10 6 16 14 10 12 8 17 -8 25 -17 9 -22
8 -31 -9z"/>
<path d="M1731 896 c-7 -8 -10 -20 -7 -25 4 -5 -4 -17 -16 -25 -12 -9 -17 -16
-11 -16 6 0 16 7 24 16 11 14 13 14 21 0 5 -9 13 -16 19 -16 5 0 1 10 -11 22
-21 23 -26 38 -11 38 5 0 13 -9 16 -21 4 -11 9 -18 12 -16 2 3 -2 17 -9 32
-13 23 -16 25 -27 11z"/>
<path d="M4499 908 c-1 -2 -3 -13 -4 -25 -2 -15 2 -20 13 -15 11 4 13 2 7 -8
-5 -8 -4 -11 3 -6 6 4 9 13 6 21 -4 8 -11 12 -17 8 -6 -4 -8 0 -4 10 5 13 1
25 -4 15z"/>
<path d="M4535 900 c-3 -6 1 -7 9 -4 18 7 21 14 7 14 -6 0 -13 -4 -16 -10z"/>
<path d="M4669 897 c6 -8 7 -18 3 -22 -4 -5 -1 -5 6 -1 10 6 10 11 1 22 -6 8
-14 14 -16 14 -3 0 0 -6 6 -13z"/>
<path d="M1490 891 c0 -6 4 -13 10 -16 6 -3 7 1 4 9 -7 18 -14 21 -14 7z"/>
<path d="M1676 881 c4 -15 2 -21 -4 -17 -16 9 -26 -14 -13 -27 9 -9 11 -8 6 5
-5 13 -2 16 14 13 11 -2 24 2 27 8 4 7 3 8 -1 4 -5 -4 -15 3 -22 15 l-14 23 7
-24z"/>
<path d="M1695 890 c3 -5 8 -10 11 -10 2 0 4 5 4 10 0 6 -5 10 -11 10 -5 0 -7
-4 -4 -10z"/>
<path d="M4247 894 c-11 -12 11 -41 30 -39 20 1 75 35 57 35 -5 0 -15 -5 -22
-12 -7 -7 -12 -9 -12 -5 0 4 -9 3 -19 -2 -15 -8 -20 -7 -25 5 -5 12 -2 15 9
10 9 -3 13 -2 10 4 -7 11 -19 13 -28 4z"/>
<path d="M4614 880 c0 -13 4 -16 10 -10 7 7 7 13 0 20 -6 6 -10 3 -10 -10z"/>
<path d="M1456 874 c-3 -9 -2 -12 5 -9 5 4 18 1 27 -6 13 -11 12 -8 -2 9 -23
26 -22 26 -30 6z"/>
<path d="M4350 878 c0 -6 3 -8 7 -5 3 4 11 -1 18 -10 9 -13 14 -13 20 -3 5 8
4 11 -2 7 -6 -4 -13 0 -17 8 -6 18 -26 20 -26 3z"/>
<path d="M1515 861 c-9 -15 15 -25 28 -12 9 9 7 10 -7 5 -13 -5 -17 -4 -12 4
4 7 5 12 2 12 -3 0 -7 -4 -11 -9z"/>
<path d="M1575 860 c-3 -6 1 -13 10 -16 11 -5 13 -10 5 -19 -7 -8 -6 -12 4
-12 16 0 14 29 -2 35 -7 2 -10 8 -6 13 3 5 3 9 0 9 -3 0 -8 -5 -11 -10z"/>
<path d="M1880 855 c-6 -8 -10 -20 -7 -27 3 -8 6 -6 6 5 1 10 5 16 9 13 5 -3
9 1 9 9 0 19 -2 19 -17 0z"/>
<path d="M1910 859 c0 -5 4 -8 9 -4 5 3 12 1 16 -5 3 -5 -1 -10 -9 -10 -9 0
-16 -5 -16 -11 0 -7 10 -5 25 5 29 19 44 21 27 4 -7 -7 -12 -17 -12 -22 0 -6
5 -4 10 5 6 10 18 15 34 12 13 -3 26 0 30 5 3 5 -4 10 -17 10 -34 1 -66 8 -73
15 -11 10 -24 8 -24 -4z"/>
<path d="M4234 846 c3 -16 8 -31 11 -35 3 -3 4 7 1 23 -3 16 -8 31 -11 35 -3
3 -4 -7 -1 -23z"/>
<path d="M4335 860 c3 -5 -1 -10 -9 -10 -9 0 -16 -5 -16 -10 0 -7 7 -7 20 0
17 9 20 30 4 30 -3 0 -2 -4 1 -10z"/>
<path d="M4455 861 c6 -10 2 -12 -16 -6 -13 4 -22 6 -19 4 3 -2 14 -12 26 -22
20 -16 21 -16 19 3 -1 11 -5 23 -10 27 -4 5 -5 2 0 -6z"/>
<path d="M4559 853 c-13 -16 -12 -17 4 -4 16 13 21 21 13 21 -2 0 -10 -8 -17
-17z"/>
<path d="M1792 851 c-11 -7 -10 -9 3 -14 9 -4 14 -3 10 2 -3 5 1 12 7 14 7 3
9 6 3 6 -5 0 -16 -3 -23 -8z"/>
<path d="M4669 843 c-13 -16 -12 -17 4 -4 16 13 21 21 13 21 -2 0 -10 -8 -17
-17z"/>
<path d="M1335 840 c-3 -5 -1 -10 4 -10 6 0 11 5 11 10 0 6 -2 10 -4 10 -3 0
-8 -4 -11 -10z"/>
<path d="M1628 833 c-4 -13 0 -19 13 -19 14 0 16 3 6 16 -6 8 -12 16 -13 18
-1 1 -4 -5 -6 -15z"/>
<path d="M1825 839 c-6 -8 -4 -10 5 -4 9 5 10 1 6 -16 -6 -21 -6 -22 5 -6 7
13 8 22 1 29 -6 6 -12 6 -17 -3z"/>
<path d="M4170 845 c0 -8 29 -12 39 -5 9 5 4 8 -13 8 -14 0 -26 -2 -26 -3z"/>
<path d="M4395 840 c-3 -5 -1 -10 4 -10 6 0 11 5 11 10 0 6 -2 10 -4 10 -3 0
-8 -4 -11 -10z"/>
<path d="M4599 833 c-13 -16 -12 -17 4 -4 9 7 17 15 17 17 0 8 -8 3 -21 -13z"/>
<path d="M1551 827 c-8 -10 -7 -14 2 -14 8 0 14 6 14 14 0 7 -1 13 -2 13 -2 0
-8 -6 -14 -13z"/>
<path d="M2083 833 c-7 -3 -13 -8 -13 -13 0 -9 26 -7 36 3 9 8 24 -1 24 -14 0
-6 -6 -7 -12 -3 -10 5 -10 3 0 -7 11 -12 14 -12 22 1 13 21 -27 43 -57 33z"/>
<path d="M3934 828 c-3 -5 -10 -6 -15 -3 -5 4 -9 1 -9 -5 0 -7 7 -10 15 -6 8
3 15 0 15 -7 0 -8 4 -6 10 3 8 13 14 8 12 -11 -1 -3 6 -6 13 -6 11 0 12 4 4
13 -6 7 -8 17 -6 21 3 5 -3 9 -14 9 -11 0 -23 -4 -25 -8z"/>
<path d="M4158 827 c12 -7 19 -17 15 -22 -4 -4 -2 -5 6 0 12 7 11 10 -4 22
-11 7 -24 13 -29 13 -6 -1 -1 -6 12 -13z"/>
<path d="M4261 836 c2 -2 15 -9 29 -15 24 -11 24 -11 6 3 -16 13 -49 24 -35
12z"/>
<path d="M1514 816 c1 -8 5 -18 8 -22 4 -3 5 1 4 10 -1 8 -5 18 -8 22 -4 3 -5
-1 -4 -10z"/>
<path d="M1735 820 c6 -10 4 -12 -11 -6 -15 6 -17 5 -6 -5 9 -9 15 -10 23 -2
8 8 7 13 -2 18 -8 6 -10 4 -4 -5z"/>
<path d="M1775 821 c-6 -11 13 -26 22 -17 4 3 1 6 -6 6 -7 0 -9 5 -6 10 3 6 4
10 1 10 -3 0 -7 -4 -11 -9z"/>
<path d="M3882 821 c-11 -7 -11 -9 2 -14 9 -4 16 -11 16 -17 0 -6 -4 -9 -9 -5
-5 3 -12 1 -15 -4 -4 -5 1 -8 9 -7 23 3 29 14 17 29 -7 8 -9 17 -5 20 9 10 1
8 -15 -2z"/>
<path d="M3992 818 c2 -6 10 -13 16 -14 7 -1 8 0 2 3 -5 2 -8 9 -4 14 3 5 0 9
-6 9 -7 0 -10 -5 -8 -12z"/>
<path d="M4217 809 c4 -13 8 -18 11 -10 2 7 -1 18 -6 23 -8 8 -9 4 -5 -13z"/>
<path d="M4420 826 c0 -2 8 -10 18 -17 15 -13 16 -12 3 4 -13 16 -21 21 -21
13z"/>
<path d="M4510 816 c7 -7 13 -7 20 0 6 6 3 10 -10 10 -13 0 -16 -4 -10 -10z"/>
<path d="M1966 805 c-3 -8 -1 -15 4 -15 6 0 10 7 10 15 0 8 -2 15 -4 15 -2 0
-6 -7 -10 -15z"/>
<path d="M2016 805 c-9 -26 -7 -32 5 -12 6 10 9 21 6 23 -2 3 -7 -2 -11 -11z"/>
<path d="M2051 804 c0 -11 3 -14 6 -6 3 7 2 16 -1 19 -3 4 -6 -2 -5 -13z"/>
<path d="M2295 810 c-4 -6 -11 -8 -16 -5 -5 4 -9 2 -9 -3 0 -5 11 -9 25 -9 25
0 33 11 16 22 -5 3 -12 1 -16 -5z"/>
<path d="M3814 808 c-10 -16 4 -22 21 -8 10 8 15 9 15 1 0 -6 5 -11 12 -11 9
0 9 3 0 12 -15 15 -40 19 -48 6z"/>
<path d="M4137 809 c7 -7 15 -10 18 -7 3 3 -2 9 -12 12 -14 6 -15 5 -6 -5z"/>
<path d="M1380 800 c-9 -6 -10 -10 -3 -10 6 0 15 5 18 10 8 12 4 12 -15 0z"/>
<path d="M1850 806 c0 -2 7 -7 16 -10 8 -3 12 -2 9 4 -6 10 -25 14 -25 6z"/>
<path d="M1890 800 c0 -5 5 -10 10 -10 6 0 10 5 10 10 0 6 -4 10 -10 10 -5 0
-10 -4 -10 -10z"/>
<path d="M4052 801 c-11 -7 -10 -9 3 -14 9 -4 14 -3 10 2 -3 5 1 12 7 14 7 3
9 6 3 6 -5 0 -16 -3 -23 -8z"/>
<path d="M4199 808 c-6 -20 -6 -39 0 -42 4 -3 7 6 7 20 0 20 -4 32 -7 22z"/>
<path d="M4330 798 c0 -6 3 -8 7 -5 3 4 13 1 22 -6 14 -11 14 -10 2 6 -15 20
-31 22 -31 5z"/>
<path d="M4476 793 c-6 -14 -5 -15 5 -6 7 7 10 15 7 18 -3 3 -9 -2 -12 -12z"/>
<path d="M2074 791 c4 -5 1 -12 -4 -14 -6 -3 -5 -4 2 -3 15 3 23 26 8 26 -6 0
-9 -4 -6 -9z"/>
<path d="M2337 793 c-4 -3 -7 -11 -7 -17 0 -6 5 -5 12 2 6 6 9 14 7 17 -3 3
-9 2 -12 -2z"/>
<path d="M4240 796 c0 -2 7 -7 16 -10 8 -3 12 -2 9 4 -6 10 -25 14 -25 6z"/>
<path d="M1716 773 c-6 -14 -5 -15 5 -6 7 7 10 15 7 18 -3 3 -9 -2 -12 -12z"/>
<path d="M2030 781 c0 -10 29 -36 34 -30 1 2 -6 12 -16 22 -10 9 -18 13 -18 8z"/>
<path d="M2150 784 c0 -5 7 -18 15 -28 8 -11 15 -16 15 -10 0 5 -7 18 -15 28
-8 11 -15 16 -15 10z"/>
<path d="M2235 779 c-19 -9 -19 -9 2 -5 12 2 24 -1 27 -8 3 -8 5 -8 5 1 1 17
-11 22 -34 12z"/>
<path d="M2559 773 c-8 -9 -9 -14 -2 -10 7 4 13 0 16 -10 3 -10 4 -6 4 10 -2
32 -1 32 -18 10z"/>
<path d="M3399 783 c-1 -5 -1 -11 0 -15 2 -12 -17 -10 -24 2 -4 6 -10 8 -15 5
-11 -7 -9 -45 3 -45 5 0 5 9 2 20 -6 20 -6 20 32 -1 21 -11 31 -15 22 -7 -9 7
-15 21 -13 31 1 9 0 17 -2 17 -2 0 -5 -3 -5 -7z"/>
<path d="M3482 766 c16 -30 21 -34 14 -9 -6 20 -4 21 25 18 17 -3 29 -1 25 2
-3 4 -22 7 -41 8 -32 2 -33 1 -23 -19z"/>
<path d="M3934 778 c-3 -5 -3 -12 0 -15 3 -4 6 -2 6 4 0 6 9 9 20 6 11 -3 20
-3 20 0 0 10 -40 15 -46 5z"/>
<path d="M4384 782 c4 -3 14 -7 22 -8 9 -1 13 0 10 4 -4 3 -14 7 -22 8 -9 1
-13 0 -10 -4z"/>
<path d="M4613 769 c-2 -23 3 -25 10 -4 4 8 3 16 -1 19 -4 3 -9 -4 -9 -15z"/>
<path d="M2286 763 c-4 -9 -2 -21 4 -27 8 -8 9 -6 4 8 -5 13 -4 17 4 12 8 -5
10 -2 6 8 -8 20 -10 20 -18 -1z"/>
<path d="M2843 773 c-7 -3 -13 -12 -13 -21 1 -15 2 -15 11 1 10 17 29 15 29
-4 0 -6 -5 -7 -12 -3 -7 5 -8 3 -3 -6 6 -10 12 -9 24 6 18 21 52 26 58 7 3 -7
-3 -10 -15 -6 -24 6 -34 -8 -20 -27 8 -12 9 -11 4 4 -5 15 -2 17 14 13 25 -6
36 9 20 28 -12 14 -43 15 -56 2 -4 -4 -12 -3 -18 2 -6 4 -17 6 -23 4z"/>
<path d="M3015 769 c-10 -15 3 -25 16 -12 7 7 7 13 1 17 -6 3 -14 1 -17 -5z"/>
<path d="M3061 766 c-9 -10 -8 -15 2 -19 19 -7 41 8 33 22 -10 15 -21 14 -35
-3z m29 0 c0 -3 -4 -8 -10 -11 -5 -3 -10 -1 -10 4 0 6 5 11 10 11 6 0 10 -2
10 -4z"/>
<path d="M3181 766 c-9 -10 -8 -15 3 -19 11 -4 13 -1 9 10 -4 11 -2 14 5 9 7
-4 12 -2 12 3 0 15 -15 14 -29 -3z"/>
<path d="M3661 773 c-1 -17 16 -25 25 -12 4 7 3 9 -4 5 -5 -3 -13 0 -15 6 -4
9 -6 10 -6 1z"/>
<path d="M3797 767 c-3 -8 -2 -20 3 -26 5 -9 8 -4 8 13 0 29 -3 32 -11 13z"/>
<path d="M3830 770 c0 -5 7 -7 15 -4 8 4 15 8 15 10 0 2 -7 4 -15 4 -8 0 -15
-4 -15 -10z"/>
<path d="M4035 771 c-3 -6 -14 -8 -25 -6 -11 2 -22 0 -24 -4 -8 -13 43 -6 56
7 7 7 9 12 6 12 -4 0 -9 -4 -13 -9z"/>
<path d="M1475 760 c-3 -5 -1 -10 4 -10 6 0 11 5 11 10 0 6 -2 10 -4 10 -3 0
-8 -4 -11 -10z"/>
<path d="M1655 760 c3 -5 8 -10 11 -10 2 0 4 5 4 10 0 6 -5 10 -11 10 -5 0 -7
-4 -4 -10z"/>
<path d="M1920 760 c-12 -7 -10 -9 8 -7 12 0 22 5 22 9 0 11 -12 10 -30 -2z"/>
<path d="M1990 760 c0 -5 5 -10 10 -10 6 0 10 5 10 10 0 6 -4 10 -10 10 -5 0
-10 -4 -10 -10z"/>
<path d="M2084 759 c-2 -4 4 -6 13 -4 10 1 26 -2 35 -7 13 -6 16 -5 12 5 -5
14 -52 18 -60 6z"/>
<path d="M2346 762 c-2 -4 4 -8 14 -8 10 0 16 4 14 8 -3 4 -9 8 -14 8 -5 0
-11 -4 -14 -8z"/>
<path d="M3602 758 c-7 -7 -12 -17 -12 -22 0 -6 5 -3 11 7 6 9 14 15 20 12 5
-4 9 -1 9 4 0 14 -13 14 -28 -1z"/>
<path d="M3704 755 c-18 -14 -18 -14 4 -8 12 3 22 9 22 14 0 12 -3 11 -26 -6z"/>
<path d="M4074 744 c7 -38 14 -40 12 -5 0 17 -4 31 -9 31 -4 0 -5 -12 -3 -26z"/>
<path d="M4246 762 c-3 -5 1 -9 9 -9 8 0 12 4 9 9 -3 4 -7 8 -9 8 -2 0 -6 -4
-9 -8z"/>
<path d="M4550 760 c0 -5 5 -10 11 -10 5 0 7 5 4 10 -3 6 -8 10 -11 10 -2 0
-4 -4 -4 -10z"/>
<path d="M2386 743 c-6 -14 -5 -15 5 -6 7 7 10 15 7 18 -3 3 -9 -2 -12 -12z"/>
<path d="M2630 749 c-12 -8 -10 -9 9 -4 17 5 22 4 16 -5 -5 -9 -4 -11 4 -6 6
4 9 12 6 17 -8 12 -16 11 -35 -2z"/>
<path d="M3436 747 c3 -10 9 -15 12 -12 3 3 0 11 -7 18 -10 9 -11 8 -5 -6z"/>
<path d="M1595 739 c-3 -4 2 -6 10 -5 21 3 28 13 10 13 -9 0 -18 -4 -20 -8z"/>
<path d="M2413 743 c4 -6 2 -13 -4 -15 -7 -2 -6 -8 3 -16 12 -9 14 -8 13 8 -1
11 -5 23 -10 27 -4 5 -5 3 -2 -4z"/>
<path d="M2494 739 c-4 -7 -3 -9 4 -5 5 3 13 0 15 -6 4 -9 6 -10 6 -1 1 17
-16 25 -25 12z"/>
<path d="M2553 731 c0 -11 5 -18 9 -15 4 3 5 11 1 19 -7 21 -12 19 -10 -4z"/>
<path d="M2710 739 c0 -5 5 -7 10 -4 6 3 10 8 10 11 0 2 -4 4 -10 4 -5 0 -10
-5 -10 -11z"/>
<path d="M2956 733 c-6 -14 -5 -15 5 -6 7 7 10 15 7 18 -3 3 -9 -2 -12 -12z"/>
<path d="M3139 748 c-8 -27 -5 -36 9 -30 10 4 12 7 4 10 -7 2 -10 8 -6 13 3 5
3 9 0 9 -3 0 -6 -1 -7 -2z"/>
<path d="M3214 743 c3 -6 -1 -13 -11 -16 -17 -4 -17 -5 0 -6 11 -1 15 -6 11
-13 -4 -6 -3 -8 4 -5 12 8 10 32 -3 44 -4 4 -5 3 -1 -4z"/>
<path d="M3654 725 c0 -13 3 -22 7 -19 8 4 6 30 -2 38 -3 3 -5 -5 -5 -19z"/>
<path d="M3747 733 c3 -7 6 -13 8 -13 2 0 5 6 8 13 3 8 -1 14 -8 14 -7 0 -11
-6 -8 -14z"/>
<path d="M3868 743 c7 -3 16 -2 19 1 4 3 -2 6 -13 5 -11 0 -14 -3 -6 -6z"/>
<path d="M4110 736 c7 -7 13 -7 20 0 6 6 3 10 -10 10 -13 0 -16 -4 -10 -10z"/>
<path d="M4413 735 c0 -8 4 -12 9 -9 5 3 6 10 3 15 -9 13 -12 11 -12 -6z"/>
<path d="M1935 729 c-4 -6 -5 -12 -2 -15 2 -3 7 2 10 11 7 17 1 20 -8 4z"/>
<path d="M2117 730 c7 -8 20 -15 29 -16 9 -1 13 1 9 4 -4 4 -10 7 -13 7 -4 0
-14 4 -22 9 -12 7 -13 6 -3 -4z"/>
<path d="M2318 733 c7 -3 16 -2 19 1 4 3 -2 6 -13 5 -11 0 -14 -3 -6 -6z"/>
<path d="M2990 730 c-9 -6 -10 -10 -3 -10 6 0 15 5 18 10 8 12 4 12 -15 0z"/>
<path d="M3026 723 c-6 -14 -5 -15 5 -6 7 7 10 15 7 18 -3 3 -9 -2 -12 -12z"/>
<path d="M3280 729 c0 -5 -6 -7 -12 -3 -7 4 -9 3 -5 -1 13 -15 36 -14 30 1 -6
17 -13 18 -13 3z"/>
<path d="M3313 725 c0 -7 7 -11 15 -7 11 4 13 1 7 -8 -5 -9 -4 -11 3 -6 16 10
15 14 -6 25 -14 7 -19 6 -19 -4z"/>
<path d="M3895 730 c-4 -6 -11 -7 -17 -4 -7 4 -8 2 -4 -5 6 -9 11 -9 22 0 14
11 18 19 10 19 -3 0 -8 -5 -11 -10z"/>
<path d="M4015 731 c-3 -5 -2 -12 3 -15 5 -3 9 1 9 9 0 17 -3 19 -12 6z"/>
<path d="M1781 716 c-9 -11 -9 -16 1 -22 7 -4 10 -4 6 1 -4 4 -3 14 3 22 6 7
9 13 6 13 -2 0 -10 -6 -16 -14z"/>
<path d="M2244 722 c4 -3 14 -7 22 -8 9 -1 13 0 10 4 -4 3 -14 7 -22 8 -9 1
-13 0 -10 -4z"/>
<path d="M2610 726 c0 -2 7 -7 16 -10 8 -3 12 -2 9 4 -6 10 -25 14 -25 6z"/>
<path d="M2674 694 c0 -18 3 -31 7 -28 4 2 6 12 4 22 -1 9 1 22 6 28 5 6 4 11
-4 11 -8 0 -13 -13 -13 -33z"/>
<path d="M2714 708 c-19 -23 -19 -23 2 -5 11 9 24 14 27 10 4 -3 7 -1 7 5 0
19 -15 14 -36 -10z"/>
<path d="M2824 723 c4 -4 16 -8 28 -10 28 -4 18 6 -12 12 -12 2 -20 1 -16 -2z"/>
<path d="M3066 722 c-3 -5 1 -9 9 -9 8 0 12 4 9 9 -3 4 -7 8 -9 8 -2 0 -6 -4
-9 -8z"/>
<path d="M3108 712 c-3 -11 0 -19 7 -19 7 0 10 8 7 19 -2 10 -6 18 -7 18 -1 0
-5 -8 -7 -18z"/>
<path d="M3539 713 c-13 -16 -12 -17 4 -4 16 13 21 21 13 21 -2 0 -10 -8 -17
-17z"/>
<path d="M3730 721 c0 -6 4 -13 10 -16 6 -3 7 1 4 9 -7 18 -14 21 -14 7z"/>
<path d="M3850 721 c0 -6 4 -13 10 -16 6 -3 7 1 4 9 -7 18 -14 21 -14 7z"/>
<path d="M4156 722 c-3 -5 1 -9 9 -9 8 0 12 4 9 9 -3 4 -7 8 -9 8 -2 0 -6 -4
-9 -8z"/>
<path d="M4715 721 c-3 -5 -2 -12 3 -15 5 -3 9 1 9 9 0 17 -3 19 -12 6z"/>
<path d="M2574 708 c-4 -7 -3 -8 5 -4 6 4 20 2 29 -6 15 -12 16 -11 3 5 -16
20 -27 22 -37 5z"/>
<path d="M3913 705 c0 -8 4 -12 9 -9 5 3 6 10 3 15 -9 13 -12 11 -12 -6z"/>
<path d="M1631 687 c-13 -21 -12 -21 5 -5 10 10 16 20 13 22 -3 3 -11 -5 -18
-17z"/>
<path d="M2281 696 c-9 -11 -9 -16 1 -22 7 -4 10 -4 6 1 -4 4 -3 14 3 22 6 7
9 13 6 13 -2 0 -10 -6 -16 -14z"/>
<path d="M2316 698 c3 -5 10 -6 15 -3 13 9 11 12 -6 12 -8 0 -12 -4 -9 -9z"/>
<path d="M2358 703 c7 -3 16 -2 19 1 4 3 -2 6 -13 5 -11 0 -14 -3 -6 -6z"/>
<path d="M2474 693 c16 -20 36 -23 36 -6 0 4 -3 3 -7 0 -3 -4 -16 1 -27 10
-21 18 -21 18 -2 -4z"/>
<path d="M2640 700 c-9 -6 -10 -10 -3 -10 6 0 15 5 18 10 8 12 4 12 -15 0z"/>
<path d="M2755 701 c-3 -5 -2 -12 3 -15 5 -3 9 1 9 9 0 17 -3 19 -12 6z"/>
<path d="M2788 703 c9 -3 10 -9 3 -17 -8 -9 -6 -13 4 -13 8 0 13 3 10 5 -3 3
-1 10 5 16 6 8 2 12 -13 13 -12 0 -16 -1 -9 -4z"/>
<path d="M3154 685 c2 -35 11 -39 12 -4 1 16 -2 29 -6 29 -4 0 -6 -11 -6 -25z"/>
<path d="M3557 696 c-4 -9 -15 -13 -28 -11 -12 2 -19 1 -15 -2 12 -13 35 -11
47 3 7 8 10 17 7 20 -3 3 -8 -2 -11 -10z"/>
<path d="M4293 689 c-2 -23 3 -25 10 -4 4 8 3 16 -1 19 -4 3 -9 -4 -9 -15z"/>
<path d="M2887 682 c-20 -22 -21 -32 -5 -32 6 0 8 3 5 7 -4 3 0 15 10 25 9 10
14 18 11 18 -3 0 -12 -8 -21 -18z"/>
<path d="M2943 682 c10 -10 14 -22 10 -27 -5 -4 -2 -5 5 -1 11 6 10 12 -4 27
-9 10 -19 19 -22 19 -3 0 2 -8 11 -18z"/>
<path d="M3015 690 c-4 -6 -12 -7 -18 -4 -7 4 -8 3 -4 -1 13 -15 34 -14 34 1
0 17 -4 18 -12 4z"/>
<path d="M3293 687 c0 -8 6 -14 14 -14 9 0 10 4 2 14 -6 7 -12 13 -14 13 -1 0
-2 -6 -2 -13z"/>
<path d="M3404 678 l-19 -23 23 19 c12 11 22 21 22 23 0 8 -8 2 -26 -19z"/>
<path d="M3450 696 c0 -2 8 -10 18 -17 15 -13 16 -12 3 4 -13 16 -21 21 -21
13z"/>
<path d="M4073 685 c0 -8 4 -12 9 -9 5 3 6 10 3 15 -9 13 -12 11 -12 -6z"/>
<path d="M2420 686 c0 -2 8 -10 18 -17 15 -13 16 -12 3 4 -13 16 -21 21 -21
13z"/>
<path d="M3639 673 c-13 -16 -12 -17 4 -4 16 13 21 21 13 21 -2 0 -10 -8 -17
-17z"/>
<path d="M3670 680 c0 -5 5 -10 11 -10 5 0 7 5 4 10 -3 6 -8 10 -11 10 -2 0
-4 -4 -4 -10z"/>
<path d="M3720 680 c-9 -6 -10 -10 -3 -10 6 0 15 5 18 10 8 12 4 12 -15 0z"/>
<path d="M3356 658 c3 -5 10 -6 15 -3 13 9 11 12 -6 12 -8 0 -12 -4 -9 -9z"/>
<path d="M3500 666 c0 -2 8 -10 18 -17 15 -13 16 -12 3 4 -13 16 -21 21 -21
13z"/>
<path d="M3935 660 c-3 -5 -1 -10 4 -10 6 0 11 5 11 10 0 6 -2 10 -4 10 -3 0
-8 -4 -11 -10z"/>
<path d="M2390 656 c0 -2 8 -10 18 -17 15 -13 16 -12 3 4 -13 16 -21 21 -21
13z"/>
<path d="M2830 656 c0 -2 8 -10 18 -17 15 -13 16 -12 3 4 -13 16 -21 21 -21
13z"/>
<path d="M3429 643 c-13 -16 -12 -17 4 -4 9 7 17 15 17 17 0 8 -8 3 -21 -13z"/>
<path d="M3755 649 c-4 -6 -5 -12 -2 -15 2 -3 7 2 10 11 7 17 1 20 -8 4z"/>
<path d="M1956 638 c3 -5 10 -6 15 -3 13 9 11 12 -6 12 -8 0 -12 -4 -9 -9z"/>
<path d="M2130 640 c0 -5 5 -10 11 -10 5 0 7 5 4 10 -3 6 -8 10 -11 10 -2 0
-4 -4 -4 -10z"/>
<path d="M2254 636 c1 -8 5 -18 8 -22 4 -3 5 1 4 10 -1 8 -5 18 -8 22 -4 3 -5
-1 -4 -10z"/>
<path d="M2306 642 c-3 -5 1 -9 9 -9 8 0 12 4 9 9 -3 4 -7 8 -9 8 -2 0 -6 -4
-9 -8z"/>
<path d="M2546 642 c-3 -5 1 -9 9 -9 8 0 12 4 9 9 -3 4 -7 8 -9 8 -2 0 -6 -4
-9 -8z"/>
<path d="M3710 641 c0 -6 4 -13 10 -16 6 -3 7 1 4 9 -7 18 -14 21 -14 7z"/>
<path d="M3786 642 c-3 -5 1 -9 9 -9 8 0 12 4 9 9 -3 4 -7 8 -9 8 -2 0 -6 -4
-9 -8z"/>
<path d="M2215 621 c-3 -5 -2 -12 3 -15 5 -3 9 1 9 9 0 17 -3 19 -12 6z"/>
<path d="M2454 616 c1 -8 5 -18 8 -22 4 -3 5 1 4 10 -1 8 -5 18 -8 22 -4 3 -5
-1 -4 -10z"/>
<path d="M2655 620 c-3 -5 -1 -10 4 -10 6 0 11 5 11 10 0 6 -2 10 -4 10 -3 0
-8 -4 -11 -10z"/>
<path d="M3370 619 c0 -5 5 -7 10 -4 6 3 10 8 10 11 0 2 -4 4 -10 4 -5 0 -10
-5 -10 -11z"/>
<path d="M3450 619 c0 -5 5 -7 10 -4 6 3 10 8 10 11 0 2 -4 4 -10 4 -5 0 -10
-5 -10 -11z"/>
<path d="M3496 618 c3 -5 10 -6 15 -3 13 9 11 12 -6 12 -8 0 -12 -4 -9 -9z"/>
<path d="M3600 620 c-12 -7 -10 -9 7 -7 12 0 19 5 17 9 -6 10 -6 10 -24 -2z"/>
<path d="M3955 609 c-4 -6 -5 -12 -2 -15 2 -3 7 2 10 11 7 17 1 20 -8 4z"/>
<path d="M3214 596 c1 -8 5 -18 8 -22 4 -3 5 1 4 10 -1 8 -5 18 -8 22 -4 3 -5
-1 -4 -10z"/>
<path d="M3535 600 c-3 -5 -1 -10 4 -10 6 0 11 5 11 10 0 6 -2 10 -4 10 -3 0
-8 -4 -11 -10z"/>
<path d="M3647 599 c7 -7 15 -10 18 -7 3 3 -2 9 -12 12 -14 6 -15 5 -6 -5z"/>
<path d="M3696 602 c-3 -5 1 -9 9 -9 8 0 12 4 9 9 -3 4 -7 8 -9 8 -2 0 -6 -4
-9 -8z"/>
<path d="M3776 602 c-3 -5 1 -9 9 -9 8 0 12 4 9 9 -3 4 -7 8 -9 8 -2 0 -6 -4
-9 -8z"/>
<path d="M2576 578 c3 -4 11 -5 19 -1 21 7 19 12 -4 10 -11 0 -18 -5 -15 -9z"/>
<path d="M2755 579 c-3 -4 2 -6 10 -5 21 3 28 13 10 13 -9 0 -18 -4 -20 -8z"/>
<path d="M2973 575 c0 -8 4 -12 9 -9 5 3 6 10 3 15 -9 13 -12 11 -12 -6z"/>
<path d="M3050 585 c0 -7 30 -13 34 -7 3 4 -4 9 -15 9 -10 1 -19 0 -19 -2z"/>
<path d="M3176 582 c-3 -5 1 -9 9 -9 8 0 12 4 9 9 -3 4 -7 8 -9 8 -2 0 -6 -4
-9 -8z"/>
<path d="M3870 566 c0 -2 7 -7 16 -10 8 -3 12 -2 9 4 -6 10 -25 14 -25 6z"/>
<path d="M2995 541 c-3 -5 -2 -12 3 -15 5 -3 9 1 9 9 0 17 -3 19 -12 6z"/>
<path d="M3393 515 c0 -8 4 -12 9 -9 5 3 6 10 3 15 -9 13 -12 11 -12 -6z"/>
<path d="M2499 473 c-13 -16 -12 -17 4 -4 16 13 21 21 13 21 -2 0 -10 -8 -17
-17z"/>
<path d="M2715 429 c-4 -6 -5 -12 -2 -15 2 -3 7 2 10 11 7 17 1 20 -8 4z"/>
</g>
</svg>
