<?xml version="1.0" standalone="no"?>
<!DOCTYPE svg PUBLIC "-//W3C//DTD SVG 20010904//EN"
 "http://www.w3.org/TR/2001/REC-SVG-20010904/DTD/svg10.dtd">
<svg version="1.0" xmlns="http://www.w3.org/2000/svg"
 width="602.000000pt" height="602.000000pt" viewBox="0 0 602.000000 602.000000"
 preserveAspectRatio="xMidYMid meet">
<metadata>
Created by potrace 1.14, written by Peter Selinger 2001-2017
</metadata>
<g transform="translate(0.000000,602.000000) scale(0.100000,-0.100000)"
fill="#000000" stroke="none">
<path d="M2490 5459 c0 -4 -7 -5 -17 -2 -11 4 -14 3 -9 -5 4 -7 2 -12 -3 -12
-6 0 -11 4 -11 9 0 4 -22 8 -50 7 -27 -1 -50 -5 -50 -9 0 -4 -10 -2 -22 4 -18
10 -24 8 -35 -7 -7 -10 -13 -12 -13 -6 0 7 -9 12 -21 12 -11 0 -17 -4 -14 -10
3 -5 1 -10 -4 -10 -6 0 -11 4 -11 8 0 5 -13 8 -30 8 -16 0 -30 -4 -30 -10 0
-6 -4 -5 -9 2 -6 11 -10 10 -15 -4 -9 -24 -4 -25 27 -9 26 13 27 13 16 -8 -9
-20 -9 -21 4 -4 10 12 17 15 22 7 5 -8 14 -6 32 5 14 10 23 12 19 7 -3 -6 -2
-13 3 -16 5 -4 12 -3 15 2 3 5 19 7 35 6 17 -1 31 3 31 8 0 6 8 4 17 -3 11
-10 14 -10 9 -1 -4 6 -2 12 3 12 6 0 11 -5 11 -12 0 -6 7 -3 15 8 9 11 14 13
13 5 -4 -18 62 -23 69 -6 5 13 33 16 33 3 0 -4 4 -8 10 -8 5 0 7 6 4 14 -6 16
-44 29 -44 15z m-166 -17 c3 -5 -1 -9 -9 -9 -8 0 -12 4 -9 9 3 4 7 8 9 8 2 0
6 -4 9 -8z m120 0 c3 -5 -1 -9 -9 -9 -8 0 -12 4 -9 9 3 4 7 8 9 8 2 0 6 -4 9
-8z"/>
<path d="M2576 5461 c-4 -6 -13 -8 -21 -4 -11 4 -13 1 -9 -11 4 -12 10 -13 24
-6 26 14 30 13 24 -7 -5 -14 -4 -15 4 -4 6 8 15 10 22 6 9 -5 11 -4 6 3 -4 7
-1 12 8 12 9 0 16 -4 16 -8 0 -5 6 -9 14 -9 8 0 12 6 9 14 -3 7 -9 10 -14 7
-5 -3 -9 -1 -9 5 0 10 -25 9 -36 -2 -4 -4 -13 -2 -20 4 -8 6 -14 7 -18 0z"/>
<path d="M2680 5461 c0 -3 4 -12 9 -20 6 -9 11 -10 15 -2 4 6 14 11 22 11 8 0
12 -4 9 -10 -3 -5 -1 -10 4 -10 6 0 11 4 11 8 0 4 9 8 20 9 11 1 18 -2 16 -6
-3 -4 1 -8 9 -8 10 0 12 4 5 12 -5 7 -8 14 -5 17 3 2 -2 5 -10 5 -8 0 -15 -4
-15 -9 0 -5 -6 -6 -12 -1 -15 9 -78 12 -78 4z"/>
<path d="M2810 5464 c0 -6 8 -18 17 -25 11 -10 14 -10 9 -1 -4 6 -3 12 3 12 5
0 11 -3 14 -7 2 -5 2 -2 1 5 -2 6 1 12 6 12 6 0 10 -4 10 -8 0 -5 14 -7 30 -6
17 1 30 -3 30 -9 0 -8 4 -7 9 2 6 9 10 10 16 2 5 -9 10 -9 20 -1 8 7 19 9 25
5 5 -3 10 0 10 8 0 9 -10 15 -25 15 -14 0 -25 -6 -25 -12 0 -6 -5 -4 -10 4 -9
13 -10 13 -10 0 0 -9 -3 -11 -8 -5 -9 14 -102 14 -102 1 0 -6 -5 -4 -10 4 -5
8 -10 10 -10 4z"/>
<path d="M3025 5451 c1 -9 6 -14 11 -11 5 3 8 8 7 12 -2 4 8 3 22 -2 14 -5 25
-7 25 -4 0 4 7 1 15 -6 12 -10 16 -9 21 4 3 9 10 13 15 10 5 -3 6 -11 2 -17
-5 -9 -3 -9 8 0 20 16 31 17 40 2 6 -10 11 -10 23 0 13 11 16 11 16 0 0 -11 2
-11 10 1 5 8 10 10 10 3 0 -12 17 -12 38 0 11 8 16 2 13 -16 -1 -4 7 -4 16 1
10 5 28 8 40 7 12 -1 19 3 16 8 -3 5 0 7 8 5 8 -3 13 -11 11 -18 -2 -11 0 -11
11 -1 8 6 17 8 19 4 3 -4 3 -2 1 5 -1 8 3 12 9 9 7 -2 12 -10 10 -17 -3 -11 0
-11 12 0 13 10 16 10 16 -1 0 -8 6 -6 16 7 11 14 14 15 11 3 -6 -17 19 -18 57
-3 14 5 17 4 11 -5 -6 -10 -3 -11 13 -2 30 16 42 14 36 -6 -4 -11 -2 -14 3 -8
7 10 25 12 38 5 14 -7 51 -5 63 3 8 6 12 5 12 -4 1 -9 4 -8 11 4 14 24 4 34
-16 17 -10 -9 -15 -9 -15 -1 0 7 -10 10 -25 7 -13 -3 -27 0 -31 5 -4 6 -10 6
-18 0 -7 -6 -16 -8 -19 -5 -4 4 -46 8 -95 9 -48 1 -93 5 -99 8 -7 4 -14 3 -18
-3 -4 -7 -13 -7 -26 0 -15 9 -21 7 -26 -6 -6 -16 -7 -16 -14 2 -7 17 -8 17 -8
2 -1 -10 -6 -18 -12 -18 -5 0 -7 5 -3 12 4 6 3 8 -4 4 -5 -3 -13 0 -15 6 -4
10 -6 9 -6 -1 -1 -11 -4 -11 -18 0 -11 10 -14 10 -9 2 4 -7 2 -13 -3 -13 -6 0
-11 6 -11 13 0 8 -4 7 -10 -3 -9 -13 -10 -13 -10 0 0 9 -3 11 -8 5 -11 -15
-32 -17 -32 -2 0 8 -4 7 -10 -3 -9 -13 -10 -13 -10 0 0 13 -1 13 -10 0 -5 -8
-10 -10 -10 -5 0 6 -29 10 -64 11 -53 1 -63 -2 -61 -15z m505 -11 c0 -5 -2
-10 -4 -10 -3 0 -8 5 -11 10 -3 6 -1 10 4 10 6 0 11 -4 11 -10z m152 -5 c10 2
20 0 23 -4 4 -7 -40 -7 -55 -1 -3 1 -9 2 -13 1 -5 -1 -6 3 -2 9 4 7 11 8 18 2
7 -5 20 -8 29 -7z"/>
<path d="M2117 5443 c-4 -3 -35 -8 -69 -9 -83 -5 -128 -10 -135 -17 -3 -4 -13
-2 -23 3 -10 5 -20 6 -24 3 -4 -4 -14 -8 -24 -10 -22 -4 -100 -13 -129 -15
-13 -1 -23 -7 -23 -14 0 -19 28 -24 44 -9 17 18 50 20 40 3 -5 -7 -3 -8 7 -2
24 14 51 16 43 2 -4 -8 -3 -10 2 -5 5 5 10 13 10 18 1 5 2 12 3 16 0 4 8 -2
16 -13 8 -10 15 -14 15 -7 0 6 9 10 20 8 11 -2 20 0 20 6 0 5 9 9 21 9 13 0
18 -4 13 -12 -5 -9 -2 -9 9 1 14 11 17 11 17 0 0 -9 3 -10 8 -3 4 5 28 10 54
9 26 -1 45 3 42 7 -3 4 2 8 11 8 10 0 13 -5 9 -12 -4 -7 -3 -8 5 -4 6 4 9 13
5 19 -3 7 2 3 10 -7 15 -19 16 -19 16 7 0 28 -2 31 -13 20z m-83 -24 c3 -3 -5
-5 -19 -5 -13 0 -22 3 -19 7 4 8 30 6 38 -2z m-150 -7 c3 -5 -1 -9 -9 -9 -8 0
-12 4 -9 9 3 4 7 8 9 8 2 0 6 -4 9 -8z"/>
<path d="M3756 5433 c-10 -11 -7 -20 9 -20 8 0 12 4 9 9 -3 4 -1 8 5 8 5 0 11
-5 13 -11 2 -6 26 -12 54 -13 27 -1 55 -5 61 -9 6 -4 15 -2 19 4 5 8 3 9 -6 4
-8 -5 -11 -4 -6 3 4 6 13 9 21 6 8 -4 13 -9 11 -13 -3 -4 4 -7 14 -7 14 0 16
3 8 13 -8 10 -7 12 6 7 9 -3 16 -2 16 3 0 4 -20 9 -45 10 -28 2 -43 -2 -40 -7
3 -6 2 -10 -4 -10 -5 0 -11 5 -13 11 -4 12 -121 23 -132 12z"/>
<path d="M3996 5415 c-9 -23 -8 -25 9 -25 8 0 15 4 15 10 0 15 28 0 33 -18 4
-15 5 -15 6 1 0 9 9 17 19 17 13 0 14 -2 4 -9 -11 -7 -11 -9 2 -14 8 -3 17 -3
20 1 10 17 -12 32 -50 34 -21 2 -42 7 -45 11 -3 5 -9 1 -13 -8z"/>
<path d="M4110 5403 c0 -11 20 -40 20 -29 0 5 8 2 17 -5 11 -10 14 -10 9 -1
-8 14 0 14 29 3 11 -5 30 -4 43 0 16 6 24 5 28 -5 3 -8 13 -13 22 -11 9 1 25
-2 35 -7 10 -5 17 -5 17 1 0 5 -8 12 -17 15 -10 2 -7 4 7 3 15 -2 24 -8 22
-15 -1 -9 2 -11 10 -6 21 13 37 13 32 0 -6 -16 28 -17 38 -2 6 8 8 8 8 0 0
-17 60 -40 68 -27 9 13 52 -2 52 -18 0 -8 5 -7 17 2 10 8 14 9 10 2 -8 -13 9
-27 36 -29 35 -3 38 -4 31 -16 -4 -6 -3 -8 4 -4 6 3 16 -2 22 -11 11 -17 11
-17 6 0 -3 10 -2 15 3 12 5 -3 12 -2 15 3 4 8 -47 35 -60 32 -4 -1 -10 3 -14
10 -4 6 -19 13 -33 16 -15 2 -38 9 -53 14 -14 6 -30 8 -35 4 -5 -3 -9 0 -9 6
0 6 -5 8 -11 4 -8 -4 -7 -9 2 -16 11 -8 11 -9 -1 -5 -8 2 -15 9 -15 14 0 6 -3
15 -7 19 -5 4 -8 1 -8 -7 0 -10 -2 -11 -8 -2 -4 7 -23 15 -42 18 -19 3 -51 8
-70 12 -37 7 -47 4 -42 -12 1 -5 -4 -2 -11 7 -7 9 -33 19 -58 23 -24 3 -59 8
-76 11 -18 2 -33 1 -33 -3z m77 -16 c3 -4 -9 -5 -27 -2 -18 2 -35 6 -38 9 -3
3 9 4 27 2 17 -2 34 -6 38 -9z m422 -91 c11 -14 6 -15 -27 -7 -4 1 8 21 12 21
2 0 9 -6 15 -14z"/>
<path d="M1610 5380 c-8 -5 -18 -6 -23 -3 -4 3 -15 -3 -22 -13 -8 -11 -15 -14
-15 -7 0 7 -10 10 -27 7 -34 -6 -45 -13 -38 -24 3 -4 -2 -10 -10 -13 -10 -4
-12 -1 -8 11 6 15 5 15 -10 3 -9 -7 -14 -18 -10 -25 4 -6 -1 -5 -10 3 -16 12
-22 10 -54 -16 -33 -26 -37 -35 -39 -82 -3 -43 -1 -52 11 -47 8 3 17 0 21 -6
4 -6 3 -8 -3 -5 -6 4 -16 0 -23 -8 -23 -27 -3 -27 26 0 16 15 23 24 17 20 -8
-4 -13 0 -13 9 0 20 5 20 26 -1 10 -10 25 -19 33 -20 9 -2 25 -4 36 -6 11 -2
27 -7 34 -12 10 -5 12 -4 7 3 -9 16 7 15 22 0 9 -9 12 -9 12 3 0 9 -6 16 -12
17 -7 0 -23 3 -36 6 -13 3 -20 1 -17 -5 4 -5 1 -9 -4 -9 -6 0 -11 7 -11 15 0
9 -6 15 -12 14 -7 -1 -26 3 -41 9 -35 15 -47 15 -47 2 0 -5 -5 -10 -11 -10 -8
0 -9 4 0 13 6 8 7 18 3 22 -4 5 -1 5 7 0 9 -5 12 -4 7 3 -4 7 -9 21 -11 33 -4
18 -2 19 12 7 15 -11 16 -11 10 6 -6 15 -3 17 12 13 15 -4 19 0 16 17 -4 20
-3 20 9 3 10 -12 16 -15 21 -7 4 6 14 9 22 6 8 -3 11 -1 8 4 -7 11 -4 12 35
14 14 1 32 6 40 11 8 5 22 10 30 12 8 1 16 7 18 13 3 7 10 4 18 -7 8 -10 13
-13 12 -6 -3 9 5 15 15 12 23 -7 33 -4 34 12 1 11 -5 19 -13 19 -8 0 -14 -5
-14 -11 0 -8 -4 -8 -13 -1 -8 7 -18 7 -27 2z m-71 -43 c0 -8 -2 -8 -6 1 -4 9
-8 10 -18 2 -10 -8 -15 -8 -21 1 -4 7 -3 9 4 5 6 -3 13 -2 17 4 8 13 25 3 24
-13z m-104 -157 c3 -5 1 -10 -4 -10 -6 0 -11 5 -11 10 0 6 2 10 4 10 3 0 8 -4
11 -10z"/>
<path d="M4690 5239 c0 -5 5 -7 10 -4 6 3 10 2 10 -4 0 -12 -63 -61 -78 -61
-15 0 -15 -17 0 -26 6 -4 8 -3 5 3 -13 21 22 22 47 2 29 -23 35 -42 10 -32
-14 5 -15 3 -5 -15 8 -14 8 -23 1 -27 -7 -4 -7 -12 -2 -18 4 -7 8 -19 7 -27 0
-8 4 -18 10 -22 6 -5 6 -8 -2 -8 -7 0 -13 -5 -13 -11 0 -5 4 -8 8 -5 5 3 9 -1
9 -9 0 -8 -4 -12 -7 -10 -4 3 -7 -7 -7 -20 0 -14 3 -25 8 -25 5 0 9 -4 9 -10
0 -5 -6 -7 -14 -4 -10 4 -12 -2 -8 -23 2 -15 10 -34 16 -42 9 -12 8 -13 -7 -8
-14 5 -16 3 -8 -12 6 -10 8 -21 5 -24 -4 -3 -7 -25 -9 -49 -1 -24 -5 -51 -10
-60 -4 -11 -3 -18 4 -18 6 0 10 3 10 8 -1 4 -1 14 0 22 1 13 2 13 11 0 6 -10
4 -20 -7 -32 -15 -17 -12 -22 12 -19 6 1 0 -7 -13 -16 -17 -14 -20 -21 -11
-30 8 -8 8 -17 -2 -34 -11 -21 -11 -23 3 -11 13 10 18 10 24 1 4 -7 3 -9 -3
-6 -6 4 -15 -5 -21 -18 -9 -19 -9 -25 0 -25 6 0 8 -3 5 -6 -3 -4 -1 -16 5 -28
10 -20 10 -20 -7 -6 -17 14 -17 14 -7 -7 10 -18 9 -22 -6 -26 -15 -4 -15 -5 1
-6 10 0 17 -7 14 -13 -2 -7 -10 -12 -16 -10 -7 1 -10 -2 -6 -8 3 -6 10 -8 15
-5 19 12 17 -27 -3 -46 -12 -12 -16 -19 -9 -15 6 4 12 2 12 -4 0 -6 6 -8 13
-5 6 4 5 1 -3 -7 -16 -14 -24 -132 -8 -122 10 6 11 -30 1 -40 -10 -10 -13 -36
-3 -36 4 0 11 -7 14 -16 5 -14 4 -15 -8 -5 -9 8 -16 8 -20 2 -4 -5 3 -13 15
-16 16 -6 18 -9 8 -15 -7 -5 -17 -6 -21 -4 -4 3 -5 -2 -2 -10 3 -9 10 -16 15
-16 5 0 9 -5 9 -11 0 -5 -4 -8 -8 -5 -4 2 -9 -4 -9 -15 -1 -10 3 -19 8 -19 6
0 7 -5 4 -10 -4 -6 -11 -7 -17 -4 -6 4 -5 -3 2 -16 6 -12 9 -33 6 -46 -4 -14
-2 -24 4 -24 5 0 10 -5 10 -11 0 -5 -4 -8 -9 -5 -12 8 -8 -37 4 -46 6 -4 13
-8 17 -8 3 0 7 91 7 201 1 149 -2 206 -11 217 -11 13 -11 14 0 8 11 -7 13 3
10 48 -1 31 -1 56 2 56 3 0 5 56 6 124 0 69 -3 123 -7 121 -4 -3 -13 3 -20 13
-13 15 -12 16 4 3 21 -16 19 -22 22 69 1 57 -2 78 -13 86 -12 9 -12 13 -2 19
9 5 11 4 6 -3 -4 -7 -3 -12 3 -12 6 0 10 12 10 28 -1 15 1 41 3 59 2 17 0 30
-4 27 -11 -7 -10 8 2 26 6 9 5 17 -2 21 -6 4 -7 12 -2 20 10 17 12 59 2 65 -4
3 -8 10 -8 15 0 6 4 8 8 5 12 -7 9 38 -3 47 -7 4 -7 10 0 15 14 10 14 105 1
114 -7 5 -7 8 1 8 7 0 10 7 7 15 -7 17 -34 21 -34 4z m16 -41 c-1 -7 -5 -18
-9 -25 -4 -6 -3 -14 2 -17 5 -4 11 0 14 6 3 7 4 3 4 -9 -1 -20 -3 -21 -18 -7
-9 8 -16 21 -15 27 2 13 15 37 21 37 2 0 2 -6 1 -12z m4 -138 c0 -5 -2 -10 -4
-10 -3 0 -8 5 -11 10 -3 6 -1 10 4 10 6 0 11 -4 11 -10z m-5 -540 c3 -5 1 -10
-4 -10 -6 0 -11 5 -11 10 0 6 2 10 4 10 3 0 8 -4 11 -10z"/>
<path d="M4593 5150 c1 -11 5 -20 9 -20 4 0 8 9 8 20 0 11 -4 20 -9 20 -6 0
-9 -9 -8 -20z"/>
<path d="M1565 5149 c-4 -6 -4 -13 -1 -16 3 -4 6 -1 6 5 0 7 5 12 11 12 5 0 8
-4 5 -9 -4 -5 2 -8 11 -7 10 2 21 -2 25 -8 5 -7 8 -4 8 8 0 12 -5 16 -15 13
-8 -4 -17 -2 -20 3 -8 13 -22 13 -30 -1z"/>
<path d="M4555 5150 c-3 -5 -13 -7 -23 -4 -14 5 -14 4 -2 -4 9 -7 19 -7 26 -2
6 6 15 6 19 2 5 -4 5 -1 1 6 -9 15 -13 15 -21 2z"/>
<path d="M1358 5129 c-20 -11 -25 -39 -7 -39 5 0 7 4 4 10 -4 6 1 7 11 3 11
-4 15 -3 10 5 -3 6 -2 13 3 16 20 13 4 -25 -17 -40 -21 -14 -33 -72 -13 -60 5
3 7 16 4 29 -4 20 -3 20 7 4 9 -14 9 -22 -2 -35 -19 -22 -24 -87 -6 -76 10 6
10 4 2 -7 -14 -18 -14 -50 0 -42 8 5 8 2 0 -8 -7 -8 -11 -58 -11 -122 l0 -108
26 16 26 16 -27 -23 c-26 -22 -27 -27 -26 -111 1 -72 4 -87 16 -87 13 0 13 3
4 12 -15 15 -15 28 0 28 6 0 8 -3 5 -7 -4 -3 -2 -12 4 -19 8 -9 5 -15 -10 -24
-21 -11 -30 -50 -12 -50 15 0 24 20 9 20 -8 0 -6 5 5 11 10 6 21 8 24 5 4 -3
0 -6 -8 -6 -11 0 -11 -2 1 -10 11 -7 11 -10 2 -10 -7 0 -11 -4 -8 -8 2 -4 1
-14 -5 -22 -6 -10 -9 -11 -9 -2 0 6 -4 12 -9 12 -5 0 -9 -87 -9 -197 l-1 -198
23 -1 c22 -2 23 1 21 62 -1 41 2 61 8 57 6 -4 7 -1 2 7 -5 8 -8 31 -6 52 1 21
-3 38 -8 38 -6 0 -8 -8 -5 -17 5 -15 4 -16 -5 -3 -8 12 -5 19 12 32 16 13 18
18 6 18 -8 0 -20 -5 -27 -12 -9 -9 -12 -9 -12 0 0 7 5 12 11 12 6 0 7 5 2 13
-11 17 -12 107 -1 107 5 0 7 -4 4 -9 -3 -5 6 -8 21 -8 24 0 25 1 10 12 -17 12
-24 31 -8 21 4 -3 7 18 5 46 -2 28 0 56 3 62 10 16 11 46 1 52 -12 8 -10 48 5
63 7 9 8 11 0 7 -7 -4 -11 5 -10 28 1 21 5 32 11 29 6 -3 5 0 -1 8 -7 7 -13
19 -13 27 0 8 5 10 13 6 10 -6 10 -4 0 7 -7 7 -13 28 -13 47 0 23 -4 31 -12
27 -7 -4 -5 0 4 8 10 8 15 17 11 20 -3 4 -12 2 -19 -4 -8 -7 -14 -6 -20 2 -4
7 -3 9 4 5 6 -3 13 -2 17 4 4 6 10 8 15 5 5 -3 12 -1 15 5 4 6 3 10 -2 9 -19
-3 -21 3 -13 31 5 19 5 28 -1 25 -5 -4 -9 -2 -9 3 0 6 7 13 16 16 17 6 10 26
-9 26 -7 0 -6 -4 3 -11 13 -9 13 -10 0 -6 -8 2 -14 10 -12 16 1 6 -5 11 -13
11 -8 0 -15 5 -15 10 0 7 7 7 21 -1 16 -8 24 -8 33 2 8 9 8 10 -3 4 -11 -6
-13 -1 -9 23 4 26 2 29 -9 20 -11 -8 -12 -7 -7 5 3 9 13 18 22 20 15 4 15 5 1
6 -12 1 -15 8 -11 26 2 15 9 22 16 18 6 -4 5 1 -3 10 -11 14 -11 17 0 17 11 0
11 2 -1 10 -18 12 -21 12 -42 -1z m19 -135 c-3 -3 -12 -4 -19 -1 -8 3 -5 6 6
6 11 1 17 -2 13 -5z m-7 -74 c0 -5 -5 -10 -11 -10 -5 0 -7 5 -4 10 3 6 8 10
11 10 2 0 4 -4 4 -10z m0 -71 c0 -6 -4 -7 -10 -4 -5 3 -10 11 -10 16 0 6 5 7
10 4 6 -3 10 -11 10 -16z m10 -75 c0 -2 -7 -4 -15 -4 -8 0 -15 4 -15 10 0 5 7
7 15 4 8 -4 15 -8 15 -10z m-16 -29 c-4 -8 -8 -15 -10 -15 -2 0 -4 7 -4 15 0
8 4 15 10 15 5 0 7 -7 4 -15z m14 -29 c-10 -7 -14 -17 -10 -21 4 -5 1 -5 -6
-1 -10 6 -10 11 -1 22 6 8 17 14 23 14 6 0 3 -7 -6 -14z m6 -71 c-4 -8 -11
-15 -16 -15 -7 0 -7 -5 -1 -12 5 -7 9 -30 8 -51 -1 -30 2 -36 15 -32 11 5 12
3 3 -6 -13 -13 -37 -3 -28 12 4 5 1 9 -4 9 -6 0 -11 5 -11 11 0 5 5 7 10 4 6
-3 10 -2 10 4 0 5 -4 12 -9 16 -15 8 -9 48 9 62 20 16 20 16 14 -2z m16 -139
c0 -3 -4 -8 -10 -11 -5 -3 -10 -1 -10 4 0 6 5 11 10 11 6 0 10 -2 10 -4z m-30
-337 c0 -6 -4 -7 -10 -4 -5 3 -10 11 -10 16 0 6 5 7 10 4 6 -3 10 -11 10 -16z
m-2 -45 c0 -17 -3 -22 -8 -13 -5 6 -6 18 -3 26 8 19 11 16 11 -13z m2 -44 c0
-5 -4 -10 -10 -10 -5 0 -10 5 -10 10 0 6 5 10 10 10 6 0 10 -4 10 -10z m-7
-35 c-3 -9 -8 -14 -10 -11 -3 3 -2 9 2 15 9 16 15 13 8 -4z"/>
<path d="M1700 5130 c-9 -6 -10 -10 -3 -10 6 0 15 5 18 10 8 12 4 12 -15 0z"/>
<path d="M4476 5127 c3 -10 9 -15 12 -12 3 3 0 11 -7 18 -10 9 -11 8 -5 -6z"/>
<path d="M1510 5120 c0 -5 5 -10 10 -10 6 0 10 5 10 10 0 6 -4 10 -10 10 -5 0
-10 -4 -10 -10z"/>
<path d="M4450 5121 c0 -6 4 -13 10 -16 6 -3 7 1 4 9 -7 18 -14 21 -14 7z"/>
<path d="M4640 5120 c-8 -5 -10 -10 -5 -10 6 0 17 5 25 10 8 5 11 10 5 10 -5
0 -17 -5 -25 -10z"/>
<path d="M1550 5110 c-8 -5 -13 -10 -10 -11 3 0 13 -2 22 -4 11 -2 15 2 11 11
-6 16 -4 16 -23 4z"/>
<path d="M1587 5104 c3 -8 8 -13 11 -10 2 3 13 1 23 -5 15 -8 19 -6 19 7 0 10
-3 15 -6 11 -3 -3 -17 -2 -30 3 -18 7 -22 6 -17 -6z"/>
<path d="M1650 5110 c0 -8 9 -21 21 -28 12 -8 18 -9 14 -3 -3 6 -1 11 4 11 6
0 11 -5 11 -11 0 -6 9 -8 21 -4 12 4 19 3 16 -2 -3 -5 3 -9 13 -9 10 0 16 5
14 11 -3 5 1 2 9 -7 10 -13 16 -15 25 -6 9 9 12 9 12 1 0 -6 8 -10 18 -8 9 1
22 0 27 -3 21 -13 75 -7 75 7 0 8 -3 11 -6 8 -4 -3 -15 -2 -25 4 -15 8 -17 6
-12 -8 6 -17 5 -17 -15 1 -12 11 -30 16 -41 13 -11 -3 -22 0 -25 7 -3 7 -5 7
-5 -1 -1 -7 -6 -13 -12 -13 -5 0 -8 4 -5 9 3 5 -3 11 -14 14 -11 3 -20 1 -20
-4 0 -6 -7 -6 -19 0 -10 6 -21 7 -25 4 -3 -3 -6 -1 -6 4 0 6 -8 10 -17 9 -10
-2 -21 2 -25 8 -5 7 -8 6 -8 -4z"/>
<path d="M4528 5100 c-9 -6 -29 -11 -45 -12 -15 -1 -34 -6 -40 -11 -8 -6 -13
-6 -13 0 0 5 -7 10 -15 10 -8 0 -12 -4 -9 -9 3 -5 -6 -7 -20 -4 -16 3 -26 0
-26 -7 0 -8 -3 -7 -9 2 -5 8 -11 9 -15 3 -3 -5 -17 -8 -31 -7 -14 2 -25 -1
-25 -7 0 -6 -6 -5 -15 2 -8 7 -15 9 -15 4 0 -5 -17 -9 -38 -10 -20 -1 -73 -4
-117 -8 -92 -8 -160 -12 -335 -22 -183 -10 -1060 -13 -1060 -3 0 7 -7 7 -45
-1 -23 -5 -34 1 -29 15 4 8 1 15 -5 15 -6 0 -11 -6 -11 -14 0 -9 -11 -13 -30
-12 -16 0 -30 4 -30 9 0 4 11 5 23 3 16 -3 24 1 24 10 0 10 -4 11 -13 3 -8 -7
-14 -6 -20 2 -5 8 -10 5 -18 -9 -10 -20 -14 -20 -38 -8 -21 11 -26 12 -22 1 4
-10 -2 -12 -28 -6 -18 3 -59 6 -90 6 -32 -1 -58 3 -58 7 0 5 4 7 8 4 5 -3 9 1
9 8 0 8 -7 13 -16 11 -9 -1 -15 -8 -13 -14 1 -6 -5 -11 -13 -11 -9 0 -12 6 -9
18 5 16 5 16 -6 0 -12 -20 -40 -24 -40 -7 0 5 4 8 9 4 5 -3 12 -2 15 3 2 4 -4
8 -14 9 -10 1 -21 -4 -23 -11 -4 -9 -24 -12 -64 -10 -78 3 -75 3 -68 13 3 6
21 8 40 7 19 -2 37 -1 39 3 3 4 -14 6 -37 6 -23 -1 -50 3 -59 7 -11 5 -18 5
-18 -2 0 -5 7 -10 15 -10 9 0 12 -6 8 -16 -7 -18 15 -36 31 -26 13 7 89 2 116
-8 15 -6 36 -4 42 5 5 6 8 6 8 -1 0 -7 19 -12 43 -13 97 -3 166 -9 176 -16 6
-3 11 -2 11 3 0 5 7 9 15 9 8 0 15 -3 15 -6 0 -11 865 -16 1065 -6 55 2 156 7
225 10 183 9 332 20 400 30 55 8 146 19 167 19 12 1 24 4 28 8 4 4 13 4 21 1
8 -3 14 -1 14 3 0 5 12 10 28 11 56 3 72 8 72 20 0 15 0 15 -22 3z"/>
<path d="M4570 5100 c-13 -9 -13 -10 0 -9 8 0 24 4 35 9 l20 9 -20 0 c-11 0
-27 -4 -35 -9z"/>
<path d="M1945 5093 c12 -13 99 -27 91 -15 -2 4 -21 9 -42 10 -20 2 -42 6 -48
9 -7 4 -8 3 -1 -4z"/>
<path d="M1944 5058 c-3 -5 -3 -12 0 -15 3 -4 6 -1 6 6 0 7 5 9 12 5 15 -9
103 -16 94 -7 -3 3 -18 7 -33 9 -16 1 -28 3 -28 4 0 7 -47 5 -51 -2z"/>
<path d="M2185 5060 c4 -6 11 -8 16 -5 14 9 11 15 -7 15 -8 0 -12 -5 -9 -10z"/>
<path d="M2360 5061 c0 -7 -5 -9 -12 -5 -7 5 -8 3 -3 -5 5 -9 10 -10 18 -2 6
6 8 14 4 18 -4 3 -7 1 -7 -6z"/>
<path d="M2386 5048 c3 -4 9 -8 15 -8 5 0 9 4 9 8 0 5 -7 9 -15 9 -8 0 -12 -4
-9 -9z"/>
<path d="M2455 5050 c-3 -5 -1 -10 4 -10 6 0 11 5 11 10 0 6 -2 10 -4 10 -3 0
-8 -4 -11 -10z"/>
<path d="M2510 5046 c7 -7 13 -7 20 0 6 6 3 10 -10 10 -13 0 -16 -4 -10 -10z"/>
<path d="M2666 5042 c-3 -5 1 -9 9 -9 8 0 15 4 15 9 0 4 -4 8 -9 8 -6 0 -12
-4 -15 -8z"/>
<path d="M2706 5042 c-3 -5 1 -9 9 -9 8 0 15 4 15 9 0 4 -4 8 -9 8 -6 0 -12
-4 -15 -8z"/>
<path d="M2393 4817 c-24 -5 -43 -14 -43 -18 0 -5 -7 -5 -17 -2 -11 4 -14 3
-9 -5 5 -8 2 -10 -8 -6 -9 3 -16 1 -16 -6 0 -6 -4 -9 -9 -6 -11 7 -28 -8 -166
-142 -103 -100 -198 -165 -241 -165 -8 0 -14 -4 -14 -8 0 -7 -68 -24 -82 -21
-5 1 -8 -3 -8 -10 0 -6 -3 -8 -7 -5 -3 4 -12 -1 -20 -11 -9 -10 -11 -11 -7 -2
7 13 6 13 -10 0 -10 -8 -28 -19 -39 -25 -12 -6 -27 -21 -33 -33 -15 -30 -27
-41 -18 -17 7 20 6 20 -9 0 -8 -11 -13 -24 -9 -29 3 -5 -2 -7 -11 -3 -11 4
-14 2 -10 -9 3 -7 1 -14 -5 -14 -5 0 -18 -12 -28 -27 -16 -25 -16 -26 -1 -14
15 12 17 12 11 -3 -3 -9 -10 -16 -16 -16 -5 0 -7 -4 -3 -9 3 -5 2 -12 -3 -15
-4 -2 -14 -28 -22 -55 -7 -28 -18 -51 -22 -51 -5 0 -7 -4 -4 -8 2 -4 -1 -21
-9 -37 -7 -17 -25 -58 -41 -92 -15 -34 -31 -60 -35 -58 -4 3 -9 -1 -12 -7 -3
-9 -11 -6 -26 9 -11 12 -17 24 -12 27 5 4 7 16 3 28 -3 14 -1 19 6 14 8 -4 10
-2 6 8 -7 19 -35 29 -46 18 -7 -7 -9 -59 -7 -162 2 -51 -14 -333 -27 -485 -3
-38 -7 -90 -9 -115 -2 -25 -6 -68 -9 -95 -3 -28 -8 -77 -11 -110 -3 -33 -8
-80 -10 -105 -3 -25 -7 -72 -10 -105 -7 -73 -12 -117 -25 -215 -5 -41 -12 -97
-15 -125 -10 -105 -14 -143 -20 -176 -3 -18 -8 -55 -10 -80 -2 -26 -6 -60 -9
-75 -6 -37 -14 -97 -21 -154 -11 -85 -56 -365 -65 -405 -17 -70 -12 -197 10
-267 36 -116 128 -230 268 -332 45 -33 51 -40 40 -55 -10 -13 -10 -14 2 -3 18
15 25 15 42 -1 39 -38 155 -109 181 -111 4 -1 12 -7 16 -15 6 -9 11 -10 15 -2
4 6 12 9 17 5 19 -12 -3 -22 -38 -18 -20 3 -34 2 -31 -1 5 -5 36 -11 71 -14 5
-1 5 -7 1 -13 -4 -8 -3 -10 2 -5 5 5 9 14 9 20 0 13 24 17 40 6 6 -3 22 -9 38
-13 32 -8 36 -31 6 -39 -12 -3 -18 -10 -15 -15 3 -6 1 -13 -4 -15 -6 -3 -5 -4
2 -3 7 2 12 9 11 15 -5 19 79 21 85 2 3 -9 0 -11 -8 -6 -9 6 -11 4 -5 -4 5 -9
11 -9 17 -3 6 6 7 16 2 24 -12 19 -14 39 -3 32 5 -3 7 -10 4 -15 -4 -5 1 -9
10 -9 10 0 13 5 9 13 -6 8 -3 8 9 -1 9 -8 21 -11 27 -7 5 3 10 4 10 1 0 -3
-10 -10 -21 -17 -17 -9 -20 -8 -14 3 5 7 4 10 0 5 -13 -11 -16 -45 -6 -51 5
-3 15 2 22 12 13 16 13 16 -5 2 -17 -13 -19 -13 -14 0 7 22 77 21 91 -1 9 -15
13 -14 34 9 12 14 23 19 23 13 0 -7 5 -9 10 -6 6 3 10 -1 10 -10 0 -11 5 -15
15 -12 8 4 17 2 20 -3 4 -6 0 -10 -7 -10 -9 0 -9 -3 2 -10 8 -5 20 -10 25 -10
6 0 3 5 -5 10 -10 6 -11 10 -2 10 6 0 12 4 12 10 0 5 -5 9 -11 7 -6 -1 -13 4
-15 11 -1 7 0 8 3 2 3 -7 10 -7 21 2 13 10 14 11 8 0 -6 -9 -1 -11 18 -8 17 3
24 1 20 -6 -4 -6 1 -8 15 -3 13 4 21 2 21 -5 0 -6 -3 -9 -7 -7 -5 3 -9 -7 -9
-21 -2 -26 -1 -27 9 -4 5 12 15 22 21 21 30 -4 47 2 40 13 -5 7 -3 8 7 2 8 -5
30 -10 49 -11 74 -5 86 -9 104 -33 10 -15 16 -18 12 -7 -3 9 -1 17 5 17 6 0 8
4 5 8 -2 4 9 8 25 7 26 0 27 -2 13 -12 -9 -7 -21 -10 -25 -7 -5 3 -9 0 -9 -5
0 -6 2 -11 5 -11 11 0 61 26 67 35 5 7 8 7 8 0 0 -6 9 -11 20 -12 13 -1 18 2
14 10 -4 7 1 4 12 -5 14 -14 15 -21 6 -30 -7 -7 -12 -17 -12 -22 0 -6 8 1 17
14 10 14 16 30 15 35 -2 6 2 4 9 -2 10 -10 9 -16 -4 -31 -25 -28 -20 -35 6 -9
13 12 22 27 20 32 -2 6 5 11 16 11 15 0 17 -3 9 -13 -15 -18 -2 -16 29 5 l27
17 -24 -32 c-13 -18 -21 -35 -18 -39 4 -3 9 4 13 16 4 13 12 19 21 16 8 -3 13
-2 10 3 -3 5 1 12 10 15 24 9 29 7 16 -6 -15 -15 -15 -28 -1 -28 5 0 8 3 6 8
-3 4 1 12 8 19 10 10 14 9 19 -2 2 -7 1 -16 -5 -19 -5 -2 -4 -3 3 -2 7 2 12
14 11 27 -2 20 -1 21 7 7 6 -9 17 -15 25 -12 8 4 12 11 8 18 -5 8 -3 8 8 0 8
-6 31 -10 51 -9 20 1 35 -2 32 -7 -3 -5 -10 -5 -16 -2 -7 4 -8 2 -4 -4 4 -6
13 -9 21 -5 11 4 14 0 9 -13 -4 -11 -4 -16 0 -12 4 3 9 14 10 25 2 14 12 18
50 19 28 0 42 -3 34 -7 -10 -7 -9 -9 5 -10 34 -3 38 -4 48 -19 9 -13 10 -12 5
3 -7 23 19 23 34 0 11 -17 11 -17 6 -1 -4 13 0 18 15 18 11 0 18 4 14 9 -3 5
0 13 6 17 8 5 9 3 4 -6 -6 -10 -4 -12 10 -7 11 5 22 1 30 -9 9 -14 14 -14 20
-4 6 9 4 11 -5 5 -8 -5 -11 -4 -6 3 4 6 13 9 21 6 8 -4 12 -10 9 -15 -3 -5 0
-17 6 -26 9 -15 10 -14 5 7 -6 24 -5 24 9 6 9 -11 16 -15 16 -9 0 7 -4 15 -10
18 -17 11 -11 24 10 20 11 -2 22 0 25 5 6 9 43 2 50 -11 3 -4 -4 -7 -15 -6
-11 1 -20 5 -20 10 0 5 -6 4 -13 -2 -8 -6 -17 -8 -21 -4 -4 4 -4 -1 0 -11 5
-13 9 -14 14 -6 5 8 13 9 21 4 31 -19 44 -12 40 21 0 6 8 11 18 11 15 0 17 -3
9 -13 -12 -15 3 -18 18 -3 5 5 25 11 44 12 19 2 38 8 42 13 5 7 8 6 8 0 0 -15
40 -16 40 -2 0 8 3 8 8 2 9 -13 32 -18 32 -7 0 5 7 9 15 9 8 0 12 -4 9 -9 -3
-4 -1 -8 5 -8 5 0 14 -12 20 -27 l11 -28 -5 26 c-4 22 -1 26 18 25 14 -1 22 5
21 14 -1 17 40 21 63 7 7 -4 14 0 17 10 4 15 5 15 4 -2 -1 -43 2 -51 11 -36 5
8 6 21 3 30 -5 14 -4 14 13 1 10 -8 16 -10 12 -3 -4 6 -2 15 4 19 8 4 9 3 5
-4 -4 -7 -3 -12 3 -12 6 0 8 -7 5 -15 -4 -8 -10 -13 -15 -10 -4 3 -13 -5 -19
-17 -10 -21 -10 -21 3 -6 8 10 17 15 20 12 5 -6 24 23 26 41 1 6 12 13 25 16
19 5 23 3 19 -7 -4 -10 0 -12 13 -7 17 6 17 5 5 -10 -7 -9 -9 -17 -5 -17 5 0
15 9 22 21 8 12 9 18 3 15 -5 -4 -12 -2 -16 3 -3 6 4 8 17 6 12 -3 26 1 30 8
6 9 8 9 8 -1 0 -7 4 -11 9 -7 5 3 12 1 16 -4 3 -6 -4 -8 -15 -6 -11 2 -18 0
-15 -6 4 -5 11 -6 17 -3 7 5 9 -2 4 -20 -3 -14 -3 -26 2 -26 9 0 10 7 13 55 2
30 10 32 29 5 20 -28 34 -25 16 3 -14 21 -14 22 12 24 36 2 65 8 77 14 6 3 21
5 35 4 14 0 29 4 33 10 5 5 6 -1 3 -15 -6 -25 -6 -25 5 -2 9 16 21 22 46 22
20 0 32 -5 30 -12 -1 -6 7 -14 19 -17 13 -4 20 -13 18 -23 -1 -10 3 -21 8 -25
7 -3 8 -1 4 5 -4 7 -3 12 1 12 5 0 17 6 28 13 14 11 15 16 5 22 -8 5 -11 4 -7
-2 4 -6 0 -14 -9 -17 -22 -8 -24 -8 -21 6 1 6 -9 14 -23 18 l-25 7 29 12 c16
6 26 14 23 17 -3 3 -15 1 -26 -5 -16 -9 -19 -9 -16 2 7 18 41 19 56 1 8 -10 8
-14 0 -14 -6 0 -11 -5 -11 -11 0 -16 28 9 41 35 9 20 9 20 -4 3 -10 -12 -17
-14 -22 -7 -7 12 75 51 90 42 5 -3 -3 -10 -19 -15 -18 -6 -26 -15 -23 -26 2
-9 9 -15 15 -14 15 4 16 -13 2 -20 -6 -3 -5 -4 2 -3 7 2 13 9 13 17 0 8 -6 13
-12 12 -23 -5 -13 17 12 27 18 7 23 14 18 27 -6 16 -5 16 11 4 13 -11 19 -12
29 -2 9 10 8 11 -5 6 -32 -13 -19 3 32 35 29 19 55 29 62 24 7 -4 10 -3 6 1
-5 5 13 21 40 36 33 19 49 23 54 15 5 -7 8 -6 8 4 0 9 13 23 29 33 100 59 234
254 257 374 11 53 11 132 2 168 -11 41 -58 299 -73 400 -4 22 -8 47 -10 55 -2
8 -7 42 -11 75 -3 33 -8 69 -10 80 -3 11 -7 39 -9 63 -3 23 -7 55 -9 70 -3 15
-8 52 -11 82 -4 30 -8 66 -10 80 -2 14 -6 52 -10 85 -3 33 -8 71 -10 85 -4 24
-15 124 -20 185 -9 107 -17 195 -20 225 -4 31 -11 133 -21 290 -2 30 -6 159
-10 285 -6 224 -10 246 -39 244 -5 0 -4 -3 3 -6 10 -4 9 -8 -4 -17 -13 -10
-14 -15 -4 -21 8 -5 11 -4 7 2 -3 5 0 10 8 10 11 0 12 -4 4 -14 -6 -7 -8 -13
-4 -13 4 0 2 -7 -5 -15 -7 -8 -9 -15 -6 -15 4 0 2 -9 -5 -21 -9 -17 -17 -20
-42 -15 -41 8 -69 12 -137 20 -30 4 -62 9 -70 11 -8 3 -37 7 -65 10 -27 2 -70
7 -95 10 -75 8 -131 14 -205 20 -38 3 -83 8 -100 10 -16 2 -75 7 -130 10 -55
4 -116 8 -135 10 -59 6 -269 17 -384 20 -124 3 -112 -6 -162 115 -37 92 -61
178 -69 247 -10 89 -55 301 -86 405 -25 84 -36 92 -209 148 -74 23 -142 45
-150 48 -8 3 -17 6 -20 6 -3 1 -11 5 -17 9 -7 5 -13 6 -13 2 0 -3 -13 1 -30
10 -16 9 -30 13 -30 9 0 -4 -6 -2 -12 3 -17 13 -64 13 -115 0z m-693 -441 c0
-2 -8 -10 -17 -17 -16 -13 -17 -12 -4 4 13 16 21 21 21 13z m-330 -406 c0 -5
-4 -10 -10 -10 -5 0 -10 5 -10 10 0 6 5 10 10 10 6 0 10 -4 10 -10z m480
-3231 c0 -14 -17 -10 -23 5 -4 10 -1 13 9 9 7 -3 14 -9 14 -14z m120 -17 c0
-5 -7 -9 -15 -9 -8 0 -12 4 -9 9 3 4 9 8 15 8 5 0 9 -4 9 -8z m56 -4 c4 4 2
-1 -5 -11 -10 -13 -17 -15 -27 -6 -8 6 -11 15 -8 21 4 5 11 5 18 -1 7 -6 17
-7 22 -3z m224 -34 c0 -8 -19 -13 -24 -6 -3 5 1 9 9 9 8 0 15 -2 15 -3z m1404
-25 c3 -3 -6 -5 -19 -5 -14 0 -25 4 -25 8 0 8 36 6 44 -3z m-579 -18 c-9 -8
-36 -10 -30 -2 2 4 11 8 20 8 8 0 13 -3 10 -6z m35 -1 c0 -5 -2 -10 -4 -10 -3
0 -8 5 -11 10 -3 6 -1 10 4 10 6 0 11 -4 11 -10z"/>
<path d="M4673 4805 c0 -8 4 -12 9 -9 5 3 6 10 3 15 -9 13 -12 11 -12 -6z"/>
<path d="M4470 4699 c0 -5 5 -7 10 -4 6 3 10 8 10 11 0 2 -4 4 -10 4 -5 0 -10
-5 -10 -11z"/>
<path d="M1373 4337 c-11 -14 -12 -73 0 -69 4 1 14 2 23 2 8 0 13 4 9 10 -3 5
-11 8 -18 6 -7 -1 -9 -1 -4 1 4 3 4 10 0 16 -4 7 0 8 11 4 10 -4 15 -3 11 3
-3 6 -14 10 -23 11 -14 0 -14 2 2 8 12 5 15 10 9 14 -6 4 -15 1 -20 -6z"/>
<path d="M1355 939 c-3 -4 2 -6 10 -5 21 3 28 13 10 13 -9 0 -18 -4 -20 -8z"/>
<path d="M1376 911 c-3 -5 7 -16 22 -25 l27 -17 -22 19 c-12 11 -19 22 -16 26
4 3 4 6 0 6 -3 0 -8 -4 -11 -9z"/>
<path d="M1435 910 c-4 -6 -11 -7 -17 -4 -7 4 -8 2 -4 -5 6 -9 11 -9 22 0 14
11 18 19 10 19 -3 0 -8 -5 -11 -10z"/>
<path d="M4617 896 c-4 -11 -1 -13 10 -9 10 4 14 2 10 -4 -3 -5 0 -10 8 -10
13 0 12 4 -2 19 -19 22 -19 22 -26 4z"/>
<path d="M4747 903 c-3 -5 6 -9 20 -10 19 -1 22 1 12 8 -17 11 -26 11 -32 2z"/>
<path d="M1473 885 c0 -8 4 -15 9 -15 4 0 8 4 8 9 0 6 -4 12 -8 15 -5 3 -9 -1
-9 -9z"/>
<path d="M1315 880 c3 -5 8 -10 11 -10 2 0 4 5 4 10 0 6 -5 10 -11 10 -5 0 -7
-4 -4 -10z"/>
<path d="M1374 859 c0 -13 3 -15 13 -7 7 6 13 12 13 13 0 2 -6 5 -13 8 -7 3
-13 -3 -13 -14z"/>
<path d="M4684 858 c-12 -14 -13 -18 -3 -10 9 6 18 10 21 7 2 -3 5 2 5 10 0
19 0 19 -23 -7z"/>
<path d="M1420 860 c-18 -12 -2 -12 25 0 13 6 15 9 5 9 -8 0 -22 -4 -30 -9z"/>
<path d="M1507 855 c3 -8 9 -12 14 -9 12 7 11 11 -5 17 -10 4 -13 1 -9 -8z"/>
<path d="M4510 860 c-13 -8 -12 -10 3 -10 9 0 17 5 17 10 0 12 -1 12 -20 0z"/>
<path d="M4600 855 c-7 -9 -8 -15 -2 -15 5 0 12 7 16 15 3 8 4 15 2 15 -2 0
-9 -7 -16 -15z"/>
<path d="M1475 850 c-3 -5 -1 -10 4 -10 6 0 11 5 11 10 0 6 -2 10 -4 10 -3 0
-8 -4 -11 -10z"/>
<path d="M1537 844 c-9 -9 24 -55 34 -48 5 3 9 -4 9 -16 0 -12 -4 -19 -9 -15
-6 3 -15 -5 -21 -17 -11 -22 -11 -22 5 -3 9 11 19 19 23 18 4 -2 7 7 7 20 0
12 -5 21 -11 20 -5 -1 -16 8 -23 19 -11 18 -11 20 4 15 9 -4 14 -3 10 3 -7 11
-19 13 -28 4z"/>
<path d="M4533 836 c-3 -6 -3 -8 2 -4 4 4 13 1 19 -7 8 -11 15 -12 26 -4 12 9
12 10 -4 5 -13 -4 -17 -2 -13 7 6 16 -21 19 -30 3z"/>
<path d="M1310 836 c0 -2 8 -10 18 -17 15 -13 16 -12 3 4 -13 16 -21 21 -21
13z"/>
<path d="M4699 838 c-5 -18 -6 -38 -1 -34 7 8 12 36 6 36 -2 0 -4 -1 -5 -2z"/>
<path d="M1370 821 c0 -6 4 -13 10 -16 6 -3 7 1 4 9 -7 18 -14 21 -14 7z"/>
<path d="M1450 820 c0 -5 5 -10 10 -10 6 0 10 5 10 10 0 6 -4 10 -10 10 -5 0
-10 -4 -10 -10z"/>
<path d="M1490 820 c0 -5 5 -10 10 -10 6 0 10 5 10 10 0 6 -4 10 -10 10 -5 0
-10 -4 -10 -10z"/>
<path d="M4495 819 c-9 -13 0 -22 25 -26 22 -3 35 12 19 23 -7 4 -9 3 -5 -4 4
-7 -1 -10 -14 -9 -22 1 -27 13 -7 20 9 4 9 6 0 6 -6 1 -15 -4 -18 -10z"/>
<path d="M4588 807 l-23 -18 25 12 c35 18 52 20 70 6 13 -10 13 -10 2 5 -17
21 -44 19 -74 -5z"/>
<path d="M1516 805 c-9 -26 -7 -32 5 -12 6 10 9 21 6 23 -2 3 -7 -2 -11 -11z"/>
<path d="M1607 806 c-4 -10 -1 -13 8 -9 8 3 12 9 9 14 -7 12 -11 11 -17 -5z"/>
<path d="M1254 796 c1 -8 5 -18 8 -22 4 -3 5 1 4 10 -1 8 -5 18 -8 22 -4 3 -5
-1 -4 -10z"/>
<path d="M4470 805 c0 -5 10 -21 21 -35 13 -17 17 -18 10 -5 -17 33 -31 51
-31 40z"/>
<path d="M4775 800 c3 -5 8 -10 11 -10 2 0 4 5 4 10 0 6 -5 10 -11 10 -5 0 -7
-4 -4 -10z"/>
<path d="M1470 791 c0 -6 4 -12 8 -15 5 -3 9 1 9 9 0 8 -4 15 -9 15 -4 0 -8
-4 -8 -9z"/>
<path d="M4428 786 c-15 -11 -15 -13 3 -24 11 -7 19 -8 19 -2 0 5 -5 10 -11
10 -5 0 -7 5 -3 12 5 7 11 5 21 -7 7 -11 13 -14 13 -8 0 21 -24 32 -42 19z"/>
<path d="M1530 780 c0 -5 5 -10 10 -10 6 0 10 5 10 10 0 6 -4 10 -10 10 -5 0
-10 -4 -10 -10z"/>
<path d="M4550 785 c0 -5 5 -17 10 -25 5 -8 10 -10 10 -5 0 6 -5 17 -10 25 -5
8 -10 11 -10 5z"/>
<path d="M4585 779 c-4 -6 -5 -12 -2 -15 2 -3 7 2 10 11 7 17 1 20 -8 4z"/>
<path d="M4659 773 c-13 -16 -12 -17 4 -4 16 13 21 21 13 21 -2 0 -10 -8 -17
-17z"/>
<path d="M1440 776 c0 -2 7 -7 16 -10 8 -3 12 -2 9 4 -6 10 -25 14 -25 6z"/>
<path d="M1721 764 c14 -17 32 -19 27 -2 -2 6 -12 12 -22 14 -14 2 -15 0 -5
-12z"/>
<path d="M4615 770 c-3 -6 1 -7 9 -4 18 7 21 14 7 14 -6 0 -13 -4 -16 -10z"/>
<path d="M1615 759 c-4 -6 -4 -13 -1 -16 3 -4 6 -1 6 5 0 6 6 9 14 6 8 -3 12
-12 9 -20 -3 -8 -3 -14 0 -14 3 0 7 7 11 15 7 18 -29 41 -39 24z"/>
<path d="M4525 759 c-4 -6 -4 -13 -1 -16 3 -4 6 -1 6 6 0 7 5 9 12 5 7 -4 8
-3 4 4 -9 15 -13 15 -21 1z"/>
<path d="M1479 758 c-6 -12 -5 -48 1 -48 4 0 7 11 6 25 -1 22 -3 30 -7 23z"/>
<path d="M1512 751 c-11 -7 -11 -9 0 -14 9 -3 15 1 15 9 0 8 -1 14 -1 14 -1 0
-7 -4 -14 -9z"/>
<path d="M1673 740 c1 -14 6 -23 11 -22 5 2 13 -2 18 -10 8 -11 9 -11 6 0 -2
8 -8 13 -13 12 -6 -1 -13 9 -17 22 -7 22 -7 22 -5 -2z"/>
<path d="M1766 749 c3 -5 -3 -9 -12 -9 -10 0 -15 -3 -11 -6 3 -4 14 -3 24 1
10 5 23 7 28 6 6 -2 6 1 2 5 -11 11 -38 14 -31 3z"/>
<path d="M1200 740 c-9 -6 -10 -10 -3 -10 6 0 15 5 18 10 8 12 4 12 -15 0z"/>
<path d="M1590 745 c0 -5 5 -17 10 -25 5 -8 10 -10 10 -5 0 6 -5 17 -10 25 -5
8 -10 11 -10 5z"/>
<path d="M1710 740 c0 -5 5 -10 10 -10 6 0 10 5 10 10 0 6 -4 10 -10 10 -5 0
-10 -4 -10 -10z"/>
<path d="M4350 741 c0 -6 4 -12 8 -15 5 -3 9 1 9 9 0 8 -4 15 -9 15 -4 0 -8
-4 -8 -9z"/>
<path d="M4426 736 c6 -15 4 -17 -6 -11 -9 6 -11 4 -5 -4 5 -9 10 -10 18 -2 8
8 7 14 -2 24 -10 10 -11 8 -5 -7z"/>
<path d="M4466 739 c3 -5 9 -7 14 -4 4 3 11 0 13 -5 3 -6 4 -5 3 1 -1 7 -10
13 -19 15 -9 1 -15 -2 -11 -7z"/>
<path d="M4613 735 c0 -8 4 -12 9 -9 5 3 6 10 3 15 -9 13 -12 11 -12 -6z"/>
<path d="M1293 715 c0 -8 4 -12 9 -9 5 3 6 10 3 15 -9 13 -12 11 -12 -6z"/>
<path d="M1335 720 c-3 -5 -1 -10 4 -10 6 0 11 5 11 10 0 6 -2 10 -4 10 -3 0
-8 -4 -11 -10z"/>
<path d="M1435 722 c3 -3 -1 -12 -7 -21 -8 -10 -4 -9 10 3 26 23 26 23 7 23
-8 0 -13 -3 -10 -5z"/>
<path d="M1575 721 c6 -10 2 -12 -16 -6 -13 4 -22 6 -19 4 3 -2 14 -12 26 -22
20 -16 21 -16 19 3 -1 11 -5 23 -10 27 -4 5 -5 2 0 -6z"/>
<path d="M4104 721 c-3 -3 -10 -6 -16 -6 -6 0 -13 -11 -14 -25 -3 -20 -2 -22
6 -8 6 9 18 15 27 14 10 -2 12 -1 5 1 -7 3 -10 9 -7 14 4 5 14 5 25 -1 15 -8
18 -7 14 3 -5 14 -29 19 -40 8z"/>
<path d="M4730 720 c0 -5 5 -10 11 -10 5 0 7 5 4 10 -3 6 -8 10 -11 10 -2 0
-4 -4 -4 -10z"/>
<path d="M1726 703 c-8 -20 9 -40 19 -22 6 8 4 10 -5 4 -9 -5 -10 -2 -5 14 8
25 0 29 -9 4z"/>
<path d="M4193 697 c0 -15 0 -27 1 -25 1 2 8 12 16 22 8 11 10 17 3 13 -6 -4
-13 -1 -16 5 -2 7 -4 0 -4 -15z"/>
<path d="M4230 711 c0 -14 29 -21 36 -9 4 7 3 8 -4 4 -7 -4 -12 -2 -12 3 0 6
-4 11 -10 11 -5 0 -10 -4 -10 -9z"/>
<path d="M1616 694 c-5 -14 -4 -15 9 -4 17 14 19 20 6 20 -5 0 -12 -7 -15 -16z"/>
<path d="M1650 700 c0 -5 5 -10 10 -10 6 0 10 5 10 10 0 6 -4 10 -10 10 -5 0
-10 -4 -10 -10z"/>
<path d="M1810 695 c0 -8 2 -15 4 -15 2 0 6 7 10 15 3 8 1 15 -4 15 -6 0 -10
-7 -10 -15z"/>
<path d="M4040 700 c-13 -8 -12 -10 3 -10 9 0 17 5 17 10 0 12 -1 12 -20 0z"/>
<path d="M4391 691 c-9 -17 -8 -18 11 -13 13 3 17 7 10 10 -7 2 -10 8 -6 13 3
5 3 9 0 9 -3 0 -10 -9 -15 -19z"/>
<path d="M4439 693 c-12 -16 -12 -17 2 -6 9 7 20 9 24 5 5 -4 5 -1 1 6 -9 16
-11 15 -27 -5z"/>
<path d="M4496 698 c3 -5 10 -6 15 -3 13 9 11 12 -6 12 -8 0 -12 -4 -9 -9z"/>
<path d="M4599 693 c-13 -16 -12 -17 4 -4 16 13 21 21 13 21 -2 0 -10 -8 -17
-17z"/>
<path d="M2034 688 c-4 -7 -3 -8 4 -4 12 7 16 -4 13 -34 -2 -13 0 -13 8 -1 6
10 6 21 0 33 -11 21 -15 22 -25 6z"/>
<path d="M4145 687 c-15 -12 -16 -15 -4 -22 8 -5 10 -4 6 0 -4 5 3 15 15 22
13 7 18 12 12 13 -5 0 -18 -6 -29 -13z"/>
<path d="M1336 682 c-3 -5 1 -9 9 -9 8 0 12 4 9 9 -3 4 -7 8 -9 8 -2 0 -6 -4
-9 -8z"/>
<path d="M1551 673 c7 -12 15 -20 18 -17 3 2 -3 12 -13 22 -17 16 -18 16 -5
-5z"/>
<path d="M1794 676 c4 -10 1 -26 -6 -35 -11 -14 -10 -14 6 0 15 14 16 20 6 35
-11 18 -11 18 -6 0z"/>
<path d="M1830 680 c0 -5 5 -10 10 -10 6 0 10 5 10 10 0 6 -4 10 -10 10 -5 0
-10 -4 -10 -10z"/>
<path d="M1939 682 c-1 -4 -1 -10 0 -14 0 -5 -5 -8 -13 -8 -8 0 -16 -6 -19
-13 -3 -8 1 -14 9 -14 7 0 10 5 7 10 -4 6 0 8 10 4 12 -4 15 -1 12 14 -3 14 1
19 13 17 9 -2 21 -7 25 -13 5 -6 7 -4 5 4 -4 15 -47 26 -49 13z"/>
<path d="M2147 676 c-4 -11 -1 -13 10 -9 11 4 14 2 9 -5 -4 -7 -2 -12 3 -12
15 0 14 15 -3 29 -10 9 -15 8 -19 -3z"/>
<path d="M4215 680 c-3 -6 0 -13 9 -16 8 -3 13 -14 11 -26 -3 -11 -1 -18 2
-14 13 13 11 37 -3 43 -8 3 -11 9 -8 14 3 5 3 9 0 9 -3 0 -8 -5 -11 -10z"/>
<path d="M4270 681 c0 -10 29 -36 34 -30 1 2 -6 12 -16 22 -10 9 -18 13 -18 8z"/>
<path d="M4690 686 c0 -2 7 -7 16 -10 8 -3 12 -2 9 4 -6 10 -25 14 -25 6z"/>
<path d="M3833 658 c-2 -18 0 -20 7 -8 12 18 13 30 2 30 -4 0 -9 -10 -9 -22z"/>
<path d="M3990 670 c0 -6 7 -13 15 -16 8 -4 12 -11 8 -17 -3 -6 -1 -7 5 -3 15
9 15 9 -8 29 -11 9 -20 12 -20 7z"/>
<path d="M4093 665 c0 -7 6 -11 14 -8 9 4 11 0 7 -11 -3 -9 -4 -16 -1 -16 15
0 14 31 -2 39 -13 7 -18 6 -18 -4z"/>
<path d="M1684 662 c4 -3 14 -7 22 -8 9 -1 13 0 10 4 -4 3 -14 7 -22 8 -9 1
-13 0 -10 -4z"/>
<path d="M1754 645 c0 -13 3 -22 7 -19 8 4 6 30 -2 38 -3 3 -5 -5 -5 -19z"/>
<path d="M2010 660 c-11 -7 -11 -10 -2 -10 7 0 10 -5 6 -12 -4 -7 -3 -8 5 -4
6 4 9 11 6 16 -3 4 1 11 7 13 7 3 9 6 3 6 -5 0 -17 -4 -25 -9z"/>
<path d="M2259 660 c-6 -4 1 -7 15 -7 14 0 26 3 26 7 0 3 -7 7 -15 7 -8 0 -19
-4 -26 -7z"/>
<path d="M2331 652 c-7 -14 -6 -19 4 -19 7 0 13 9 12 19 -1 10 -2 18 -4 18 -1
0 -7 -8 -12 -18z"/>
<path d="M3684 659 c-2 -4 0 -10 6 -14 5 -3 10 -4 10 0 0 3 10 1 23 -5 20 -10
20 -10 5 3 -10 8 -16 16 -13 19 3 2 -2 5 -10 5 -9 0 -18 -4 -21 -8z"/>
<path d="M3915 660 c3 -5 11 -10 16 -10 6 0 7 5 4 10 -3 6 -11 10 -16 10 -6 0
-7 -4 -4 -10z"/>
<path d="M4050 660 c8 -5 20 -10 25 -10 6 0 3 5 -5 10 -8 5 -19 10 -25 10 -5
0 -3 -5 5 -10z"/>
<path d="M4160 666 c0 -2 7 -7 16 -10 8 -3 12 -2 9 4 -6 10 -25 14 -25 6z"/>
<path d="M2366 648 c9 -15 44 -30 44 -18 0 5 -7 10 -16 10 -8 0 -13 4 -10 8 3
5 -1 9 -9 9 -8 0 -12 -4 -9 -9z"/>
<path d="M4535 651 c-3 -5 -2 -12 3 -15 5 -3 9 1 9 9 0 17 -3 19 -12 6z"/>
<path d="M1454 636 c1 -8 5 -18 8 -22 4 -3 5 1 4 10 -1 8 -5 18 -8 22 -4 3 -5
-1 -4 -10z"/>
<path d="M2070 638 c0 -6 7 -7 16 -4 13 5 15 2 11 -14 -3 -11 -1 -17 4 -14 16
9 6 37 -13 40 -10 1 -18 -2 -18 -8z"/>
<path d="M2133 634 c-3 -8 -2 -19 3 -24 5 -5 9 1 9 16 0 28 -3 30 -12 8z"/>
<path d="M2214 638 c-3 -5 -3 -12 0 -15 3 -4 6 -2 6 4 0 6 9 9 20 6 11 -3 20
-3 20 0 0 10 -40 15 -46 5z"/>
<path d="M2495 628 c-16 -10 -25 -18 -20 -18 6 0 20 7 31 15 12 8 24 12 27 9
3 -3 7 -1 11 4 9 15 -17 10 -49 -10z"/>
<path d="M2559 633 c-13 -16 -12 -17 4 -4 9 7 17 15 17 17 0 8 -8 3 -21 -13z"/>
<path d="M3430 635 c-11 -13 -15 -13 -21 -3 -6 9 -9 9 -9 1 0 -21 17 -23 35
-3 10 11 16 20 13 20 -3 0 -11 -7 -18 -15z"/>
<path d="M3447 624 c-23 -31 -22 -42 2 -13 17 21 21 22 37 9 11 -8 16 -10 12
-6 -4 5 -4 14 2 21 6 8 2 11 -14 11 -12 0 -30 -10 -39 -22z"/>
<path d="M3540 635 c5 -7 7 -15 3 -19 -4 -4 1 -4 12 0 11 5 14 9 7 12 -7 2
-10 7 -8 11 3 4 -1 8 -9 8 -10 0 -12 -4 -5 -12z"/>
<path d="M3575 640 c3 -5 11 -10 16 -10 6 0 7 5 4 10 -3 6 -11 10 -16 10 -6 0
-7 -4 -4 -10z"/>
<path d="M3855 625 c0 -13 3 -21 8 -18 4 2 7 10 7 18 0 8 -3 16 -7 18 -5 3 -8
-5 -8 -18z"/>
<path d="M3899 648 c-6 -22 -5 -39 3 -45 7 -4 8 -1 3 7 -6 10 -3 12 11 7 18
-7 18 -6 2 6 -10 8 -15 17 -11 20 3 4 3 7 0 7 -4 0 -7 -1 -8 -2z"/>
<path d="M4150 646 c0 -2 7 -7 16 -10 8 -3 12 -2 9 4 -6 10 -25 14 -25 6z"/>
<path d="M4200 640 c-9 -6 -10 -10 -3 -10 6 0 15 5 18 10 8 12 4 12 -15 0z"/>
<path d="M4450 639 c0 -5 5 -7 10 -4 6 3 10 8 10 11 0 2 -4 4 -10 4 -5 0 -10
-5 -10 -11z"/>
<path d="M4576 642 c-2 -4 -1 -14 4 -22 7 -11 9 -9 7 8 -1 24 -3 26 -11 14z"/>
<path d="M1959 638 c-8 -16 -3 -45 7 -45 10 0 11 4 3 13 -6 7 -8 18 -4 24 3 5
4 10 1 10 -3 0 -7 -1 -7 -2z"/>
<path d="M2280 626 c7 -7 13 -7 20 0 6 6 3 10 -10 10 -13 0 -16 -4 -10 -10z"/>
<path d="M2825 631 c-11 -11 -3 -18 19 -18 14 0 27 5 29 11 5 11 -38 18 -48 7z"/>
<path d="M2953 616 c-2 -19 -1 -19 8 -3 10 17 29 15 29 -4 0 -6 -5 -7 -12 -3
-7 5 -8 3 -3 -6 6 -10 10 -10 19 2 6 8 18 13 26 11 13 -4 13 -3 0 6 -8 5 -18
7 -22 5 -4 -3 -8 -1 -8 5 0 20 -36 7 -37 -13z"/>
<path d="M3163 633 c-7 -3 -13 -11 -13 -19 0 -9 -5 -12 -12 -8 -7 5 -8 3 -3
-6 6 -10 10 -10 19 2 6 8 17 13 24 11 6 -3 12 0 12 6 0 13 -12 19 -27 14z"/>
<path d="M4137 629 c7 -7 15 -10 18 -7 3 3 -2 9 -12 12 -14 6 -15 5 -6 -5z"/>
<path d="M1986 617 c3 -10 9 -15 12 -12 3 3 0 11 -7 18 -10 9 -11 8 -5 -6z"/>
<path d="M2020 620 c-9 -6 -10 -10 -3 -10 6 0 15 5 18 10 8 12 4 12 -15 0z"/>
<path d="M2050 621 c0 -6 4 -13 10 -16 6 -3 7 1 4 9 -7 18 -14 21 -14 7z"/>
<path d="M2350 620 c-13 -8 -12 -10 3 -10 9 0 17 5 17 10 0 12 -1 12 -20 0z"/>
<path d="M3690 627 c0 -3 15 -10 32 -16 18 -6 28 -7 23 -2 -12 10 -55 25 -55
18z"/>
<path d="M3810 625 c0 -7 30 -13 34 -7 3 4 -4 9 -15 9 -10 1 -19 0 -19 -2z"/>
<path d="M4022 622 c-8 -6 -2 -9 18 -9 20 0 26 3 18 9 -7 4 -15 8 -18 8 -3 0
-11 -4 -18 -8z"/>
<path d="M4279 613 c-13 -16 -12 -17 4 -4 9 7 17 15 17 17 0 8 -8 3 -21 -13z"/>
<path d="M4310 619 c0 -5 5 -7 10 -4 6 3 10 8 10 11 0 2 -4 4 -10 4 -5 0 -10
-5 -10 -11z"/>
<path d="M4370 619 c0 -5 5 -7 10 -4 6 3 10 8 10 11 0 2 -4 4 -10 4 -5 0 -10
-5 -10 -11z"/>
<path d="M2314 606 c1 -8 5 -18 8 -22 4 -3 5 1 4 10 -1 8 -5 18 -8 22 -4 3 -5
-1 -4 -10z"/>
<path d="M2510 610 c-8 -5 -10 -10 -5 -10 6 0 17 5 25 10 8 5 11 10 5 10 -5 0
-17 -5 -25 -10z"/>
<path d="M2624 604 c-18 -14 -18 -14 6 -3 31 14 36 19 24 19 -6 0 -19 -7 -30
-16z"/>
<path d="M2876 603 c-6 -14 -5 -15 5 -6 7 7 10 15 7 18 -3 3 -9 -2 -12 -12z"/>
<path d="M3951 607 c-8 -10 -7 -14 2 -14 8 0 14 6 14 14 0 7 -1 13 -2 13 -2 0
-8 -6 -14 -13z"/>
<path d="M1655 600 c-3 -5 -1 -10 4 -10 6 0 11 5 11 10 0 6 -2 10 -4 10 -3 0
-8 -4 -11 -10z"/>
<path d="M1690 599 c0 -5 5 -7 10 -4 6 3 10 8 10 11 0 2 -4 4 -10 4 -5 0 -10
-5 -10 -11z"/>
<path d="M1870 598 c0 -4 4 -8 9 -8 6 0 12 4 15 8 3 5 -1 9 -9 9 -8 0 -15 -4
-15 -9z"/>
<path d="M2433 591 c0 -11 5 -18 9 -15 4 3 5 11 1 19 -7 21 -12 19 -10 -4z"/>
<path d="M2694 595 c-3 -8 -4 -20 -2 -27 3 -7 7 -1 10 15 6 29 1 36 -8 12z"/>
<path d="M2790 600 c0 -5 5 -10 10 -10 6 0 10 5 10 10 0 6 -4 10 -10 10 -5 0
-10 -4 -10 -10z"/>
<path d="M3190 599 c-12 -8 -10 -9 9 -4 17 5 22 4 16 -5 -5 -9 -4 -11 4 -6 6
4 9 12 6 17 -8 12 -16 11 -35 -2z"/>
<path d="M3290 590 c-6 -11 -8 -20 -6 -20 3 0 10 9 16 20 6 11 8 20 6 20 -3 0
-10 -9 -16 -20z"/>
<path d="M3454 599 c-4 -7 -3 -9 4 -5 5 3 13 0 15 -6 4 -9 6 -10 6 -1 1 17
-16 25 -25 12z"/>
<path d="M3510 600 c0 -5 5 -10 10 -10 6 0 10 5 10 10 0 6 -4 10 -10 10 -5 0
-10 -4 -10 -10z"/>
<path d="M3560 606 c0 -2 7 -7 16 -10 8 -3 12 -2 9 4 -6 10 -25 14 -25 6z"/>
<path d="M3659 608 c-5 -18 -6 -38 -1 -34 7 8 12 36 6 36 -2 0 -4 -1 -5 -2z"/>
<path d="M3685 599 c-4 -6 -4 -13 -1 -16 3 -4 6 -1 6 6 0 7 5 9 12 5 7 -4 8
-3 4 4 -9 15 -13 15 -21 1z"/>
<path d="M3798 603 c7 -3 16 -2 19 1 4 3 -2 6 -13 5 -11 0 -14 -3 -6 -6z"/>
<path d="M2746 583 c-6 -14 -5 -15 5 -6 7 7 10 15 7 18 -3 3 -9 -2 -12 -12z"/>
<path d="M2841 584 c0 -11 3 -14 6 -6 3 7 2 16 -1 19 -3 4 -6 -2 -5 -13z"/>
<path d="M3406 583 c-6 -14 -5 -15 5 -6 7 7 10 15 7 18 -3 3 -9 -2 -12 -12z"/>
<path d="M2077 571 c-10 -12 -9 -13 3 -6 8 5 21 10 28 11 24 4 25 13 3 11 -12
-1 -28 -8 -34 -16z"/>
<path d="M2273 575 c0 -8 4 -12 9 -9 5 3 6 10 3 15 -9 13 -12 11 -12 -6z"/>
<path d="M2370 581 c0 -6 4 -13 10 -16 6 -3 7 1 4 9 -7 18 -14 21 -14 7z"/>
<path d="M2485 579 c-4 -6 -5 -12 -2 -15 2 -3 7 2 10 11 7 17 1 20 -8 4z"/>
<path d="M2507 571 c-4 -17 -3 -21 5 -13 5 5 8 16 6 23 -3 8 -7 3 -11 -10z"/>
<path d="M2632 585 c4 -5 2 -15 -5 -24 -10 -14 -10 -14 5 -3 9 8 22 11 28 7 5
-3 10 -4 10 -1 0 3 -10 11 -22 17 -13 6 -20 8 -16 4z"/>
<path d="M2710 583 c0 -6 8 -17 18 -24 16 -13 16 -13 2 6 -8 11 -16 22 -17 24
-2 2 -3 0 -3 -6z"/>
<path d="M2910 578 c0 -3 9 -6 20 -5 11 1 20 5 20 9 0 3 -9 6 -20 5 -11 -1
-20 -5 -20 -9z"/>
<path d="M3040 580 c-12 -7 -10 -9 8 -7 12 0 22 5 22 9 0 11 -12 10 -30 -2z"/>
<path d="M3156 582 c-3 -5 1 -9 9 -9 8 0 12 4 9 9 -3 4 -7 8 -9 8 -2 0 -6 -4
-9 -8z"/>
<path d="M3312 585 c4 -5 2 -15 -5 -24 -10 -14 -10 -14 5 -3 9 8 22 11 28 7 5
-3 10 -4 10 -1 0 3 -10 11 -22 17 -13 6 -20 8 -16 4z"/>
<path d="M3740 580 c-9 -6 -10 -10 -3 -10 6 0 15 5 18 10 8 12 4 12 -15 0z"/>
<path d="M3844 578 c-3 -4 5 -5 17 -3 30 6 36 14 9 12 -12 -1 -24 -5 -26 -9z"/>
<path d="M4070 580 c0 -5 5 -10 10 -10 6 0 10 5 10 10 0 6 -4 10 -10 10 -5 0
-10 -4 -10 -10z"/>
<path d="M4110 580 c0 -5 5 -10 11 -10 5 0 7 5 4 10 -3 6 -8 10 -11 10 -2 0
-4 -4 -4 -10z"/>
<path d="M1815 571 c-3 -5 -2 -12 3 -15 5 -3 9 1 9 9 0 17 -3 19 -12 6z"/>
<path d="M2866 563 c-6 -14 -5 -15 5 -6 7 7 10 15 7 18 -3 3 -9 -2 -12 -12z"/>
<path d="M3234 555 c0 -13 3 -22 7 -19 8 4 6 30 -2 38 -3 3 -5 -5 -5 -19z"/>
<path d="M3426 563 c-6 -14 -5 -15 5 -6 7 7 10 15 7 18 -3 3 -9 -2 -12 -12z"/>
<path d="M2224 562 c4 -3 14 -7 22 -8 9 -1 13 0 10 4 -4 3 -14 7 -22 8 -9 1
-13 0 -10 -4z"/>
<path d="M2790 561 c0 -6 4 -12 8 -15 5 -3 9 1 9 9 0 8 -4 15 -9 15 -4 0 -8
-4 -8 -9z"/>
<path d="M2959 568 c-7 -23 -4 -35 7 -35 9 0 11 4 4 12 -5 7 -7 15 -3 18 3 4
3 7 0 7 -4 0 -7 -1 -8 -2z"/>
<path d="M2988 563 c6 -3 10 -9 6 -14 -8 -14 2 -11 14 4 8 10 6 13 -11 14 -12
0 -16 -1 -9 -4z"/>
<path d="M3075 561 c-3 -5 -2 -12 3 -15 5 -3 9 1 9 9 0 17 -3 19 -12 6z"/>
<path d="M3108 563 c9 -3 10 -9 3 -17 -8 -9 -6 -13 4 -13 8 0 13 3 10 5 -3 3
-1 10 5 16 6 8 2 12 -13 13 -12 0 -16 -1 -9 -4z"/>
<path d="M3267 559 c7 -7 15 -10 18 -7 3 3 -2 9 -12 12 -14 6 -15 5 -6 -5z"/>
<path d="M3580 560 c-9 -6 -10 -10 -3 -10 6 0 15 5 18 10 8 12 4 12 -15 0z"/>
<path d="M2195 551 c-3 -5 -2 -12 3 -15 5 -3 9 1 9 9 0 17 -3 19 -12 6z"/>
<path d="M3535 550 c-4 -6 -10 -8 -14 -6 -4 3 -8 -1 -8 -9 0 -13 4 -12 19 2
18 16 22 23 14 23 -3 0 -8 -5 -11 -10z"/>
<path d="M2100 546 c0 -2 8 -10 18 -17 15 -13 16 -12 3 4 -13 16 -21 21 -21
13z"/>
<path d="M2920 540 c-9 -6 -10 -10 -3 -10 6 0 15 5 18 10 8 12 4 12 -15 0z"/>
<path d="M3966 538 c3 -5 10 -6 15 -3 13 9 11 12 -6 12 -8 0 -12 -4 -9 -9z"/>
<path d="M4113 535 c0 -8 4 -12 9 -9 5 3 6 10 3 15 -9 13 -12 11 -12 -6z"/>
<path d="M4187 539 c7 -7 15 -10 18 -7 3 3 -2 9 -12 12 -14 6 -15 5 -6 -5z"/>
<path d="M2006 518 c3 -5 10 -6 15 -3 13 9 11 12 -6 12 -8 0 -12 -4 -9 -9z"/>
<path d="M2480 520 c-9 -6 -10 -10 -3 -10 6 0 15 5 18 10 8 12 4 12 -15 0z"/>
<path d="M3156 522 c-2 -4 -1 -14 4 -22 7 -11 9 -9 7 8 -1 24 -3 26 -11 14z"/>
<path d="M2915 509 c-4 -6 -5 -12 -2 -15 2 -3 7 2 10 11 7 17 1 20 -8 4z"/>
<path d="M2095 500 c-3 -5 -1 -10 4 -10 6 0 11 5 11 10 0 6 -2 10 -4 10 -3 0
-8 -4 -11 -10z"/>
<path d="M2214 496 c1 -8 5 -18 8 -22 4 -3 5 1 4 10 -1 8 -5 18 -8 22 -4 3 -5
-1 -4 -10z"/>
<path d="M3580 506 c0 -2 8 -10 18 -17 15 -13 16 -12 3 4 -13 16 -21 21 -21
13z"/>
<path d="M3786 502 c-3 -5 1 -9 9 -9 8 0 15 4 15 9 0 4 -4 8 -9 8 -6 0 -12 -4
-15 -8z"/>
<path d="M2294 478 c-4 -7 -4 -10 1 -6 4 4 15 2 24 -5 14 -11 14 -10 2 6 -16
20 -18 21 -27 5z"/>
<path d="M2450 480 c0 -5 5 -10 11 -10 5 0 7 5 4 10 -3 6 -8 10 -11 10 -2 0
-4 -4 -4 -10z"/>
<path d="M2495 480 c3 -5 8 -10 11 -10 2 0 4 5 4 10 0 6 -5 10 -11 10 -5 0 -7
-4 -4 -10z"/>
<path d="M2775 480 c3 -5 8 -10 11 -10 2 0 4 5 4 10 0 6 -5 10 -11 10 -5 0 -7
-4 -4 -10z"/>
<path d="M2810 480 c0 -5 5 -10 11 -10 5 0 7 5 4 10 -3 6 -8 10 -11 10 -2 0
-4 -4 -4 -10z"/>
<path d="M2855 480 c-3 -5 -1 -10 4 -10 6 0 11 5 11 10 0 6 -2 10 -4 10 -3 0
-8 -4 -11 -10z"/>
<path d="M2635 469 c-4 -6 -5 -12 -2 -15 2 -3 7 2 10 11 7 17 1 20 -8 4z"/>
<path d="M3276 467 c3 -10 9 -15 12 -12 3 3 0 11 -7 18 -10 9 -11 8 -5 -6z"/>
<path d="M2950 461 c0 -6 4 -13 10 -16 6 -3 7 1 4 9 -7 18 -14 21 -14 7z"/>
<path d="M3025 459 c-3 -4 2 -6 10 -5 21 3 28 13 10 13 -9 0 -18 -4 -20 -8z"/>
<path d="M3631 453 c7 -12 15 -20 18 -17 3 2 -3 12 -13 22 -17 16 -18 16 -5
-5z"/>
<path d="M2576 438 c3 -4 11 -5 19 -1 21 7 19 12 -4 10 -11 0 -18 -5 -15 -9z"/>
<path d="M2646 442 c-3 -5 1 -9 9 -9 8 0 12 4 9 9 -3 4 -7 8 -9 8 -2 0 -6 -4
-9 -8z"/>
<path d="M2893 435 c0 -8 4 -12 9 -9 5 3 6 10 3 15 -9 13 -12 11 -12 -6z"/>
<path d="M3070 445 c0 -7 30 -13 34 -7 3 4 -4 9 -15 9 -10 1 -19 0 -19 -2z"/>
<path d="M3179 448 c-5 -18 -6 -38 -1 -34 7 8 12 36 6 36 -2 0 -4 -1 -5 -2z"/>
<path d="M3315 440 c3 -5 8 -10 11 -10 2 0 4 5 4 10 0 6 -5 10 -11 10 -5 0 -7
-4 -4 -10z"/>
<path d="M4316 438 c3 -5 10 -6 15 -3 13 9 11 12 -6 12 -8 0 -12 -4 -9 -9z"/>
<path d="M2316 418 c3 -5 10 -6 15 -3 13 9 11 12 -6 12 -8 0 -12 -4 -9 -9z"/>
<path d="M2547 419 c7 -7 15 -10 18 -7 3 3 -2 9 -12 12 -14 6 -15 5 -6 -5z"/>
<path d="M2920 420 c-9 -6 -10 -10 -3 -10 6 0 15 5 18 10 8 12 4 12 -15 0z"/>
<path d="M3030 420 c0 -5 5 -10 11 -10 5 0 7 5 4 10 -3 6 -8 10 -11 10 -2 0
-4 -4 -4 -10z"/>
</g>
</svg>
